<svg width="16" height="16" viewBox="0 0 16 16" fill="none" xmlns="http://www.w3.org/2000/svg">
<g clip-path="url(#clip0_889_14897)">
<path d="M5.75 5C5.75 4.9337 5.72365 4.8701 5.67677 4.82323C5.6299 4.77635 5.5663 4.75 5.5 4.75C5.4337 4.75 5.3701 4.77635 5.32323 4.82323C5.27635 4.8701 5.25 4.9337 5.25 5V5.25C5.25 5.3163 5.27635 5.3799 5.32323 5.42677C5.3701 5.47365 5.4337 5.5 5.5 5.5C5.5663 5.5 5.6299 5.47365 5.67677 5.42677C5.72365 5.3799 5.75 5.3163 5.75 5.25V5Z" fill="#4B5563"/>
<path d="M7 5.5C7.0663 5.5 7.1299 5.47365 7.17677 5.42677C7.22365 5.3799 7.25 5.3163 7.25 5.25V5C7.25 4.9337 7.22365 4.8701 7.17677 4.82323C7.1299 4.77635 7.0663 4.75 7 4.75C6.9337 4.75 6.8701 4.77635 6.82323 4.82323C6.77635 4.8701 6.75 4.9337 6.75 5V5.25C6.75 5.3163 6.77635 5.3799 6.82323 5.42677C6.8701 5.47365 6.9337 5.5 7 5.5Z" fill="#4B5563"/>
<path d="M14.75 12.25H11.36C11.451 12.099 11.4993 11.9263 11.5 11.75C11.4993 11.5005 11.4047 11.2605 11.235 11.0775C11.2439 11.0526 11.2489 11.0264 11.25 11V10.5C11.2491 10.1313 11.1573 9.76855 10.9829 9.4437C10.8085 9.11888 10.5568 8.842 10.25 8.6375V8C10.2494 7.80127 10.1702 7.61085 10.0297 7.47032C9.88918 7.3298 9.69876 7.2506 9.50003 7.25H7.80503C7.86926 7.17095 7.92773 7.0874 7.98003 7H8.49253C8.55956 7.00058 8.62601 6.98758 8.68786 6.9618C8.74973 6.93603 8.80576 6.898 8.85253 6.85C8.89928 6.80227 8.93583 6.7455 8.95991 6.68318C8.98398 6.62085 8.99508 6.55428 8.99253 6.4875L8.98253 6.07C9.06611 6.00033 9.13336 5.9132 9.17958 5.8147C9.22581 5.71623 9.24986 5.6088 9.25003 5.5V5.25C9.24968 5.14512 9.22725 5.0415 9.18418 4.94585C9.14111 4.85022 9.07836 4.76475 9.00003 4.695V3.25C9.00003 2.91848 8.86833 2.60053 8.63391 2.36612C8.39951 2.13169 8.08156 2 7.75003 2H7.50003C7.35128 2.00007 7.20593 2.04446 7.08253 2.1275C6.97336 1.93683 6.81576 1.77838 6.62566 1.66819C6.43558 1.558 6.21976 1.49998 6.00003 1.5H5.25003C4.78606 1.50053 4.34126 1.68508 4.01318 2.01315C3.68511 2.34122 3.50056 2.78603 3.50003 3.25V4.695C3.42171 4.76475 3.35896 4.85022 3.31588 4.94585C3.27281 5.0415 3.25038 5.14512 3.25003 5.25V5.5C3.25063 5.69873 3.32983 5.88915 3.47036 6.02968C3.61088 6.1702 3.80131 6.2494 4.00003 6.25H4.26753C4.31461 6.6165 4.46261 6.96273 4.69503 7.25H3.00003C2.80131 7.2506 2.61088 7.3298 2.47036 7.47032C2.32983 7.61085 2.25062 7.80127 2.25003 8V8.6375C1.94326 8.842 1.69155 9.11888 1.51715 9.4437C1.34274 9.76855 1.251 10.1313 1.25003 10.5V11C1.25116 11.0264 1.25621 11.0526 1.26503 11.0775C1.11808 11.2341 1.02673 11.4348 1.00505 11.6484C0.983361 11.8622 1.03255 12.077 1.14503 12.26C0.978978 12.2829 0.825448 12.361 0.709131 12.4817C0.592813 12.6023 0.520471 12.7586 0.503733 12.9254C0.486998 13.0922 0.526843 13.2598 0.616861 13.4012C0.706878 13.5426 0.841836 13.6496 1.00003 13.705V15.25C1.00003 15.3163 1.02637 15.3799 1.07325 15.4268C1.12014 15.4736 1.18373 15.5 1.25003 15.5C1.31634 15.5 1.37992 15.4736 1.42681 15.4268C1.47369 15.3799 1.50003 15.3163 1.50003 15.25V13.75H14.5V15.25C14.5 15.3163 14.5264 15.3799 14.5733 15.4268C14.6201 15.4736 14.6837 15.5 14.75 15.5C14.8163 15.5 14.8799 15.4736 14.9268 15.4268C14.9737 15.3799 15 15.3163 15 15.25V13.705C15.1654 13.645 15.3044 13.5288 15.3927 13.3767C15.4811 13.2246 15.5132 13.0463 15.4834 12.873C15.4536 12.6996 15.3638 12.5423 15.2298 12.4284C15.0957 12.3145 14.9259 12.2514 14.75 12.25ZM10.25 9.2775C10.5698 9.60418 10.7492 10.0429 10.75 10.5V10.785C10.6685 10.7631 10.5845 10.7513 10.5 10.75H10.25V9.2775ZM10.25 11.25H10.5C10.6326 11.25 10.7598 11.3027 10.8536 11.3965C10.9474 11.4902 11 11.6174 11 11.75C11 11.8826 10.9474 12.0098 10.8536 12.1035C10.7598 12.1973 10.6326 12.25 10.5 12.25H10.25V11.25ZM8.18503 6.5C8.20711 6.41797 8.22298 6.3344 8.23253 6.25H8.48753L8.49253 6.5H8.18503ZM8.75003 5.25V5.5C8.75003 5.5663 8.72368 5.6299 8.67681 5.67677C8.62993 5.72365 8.56633 5.75 8.50003 5.75H8.25003V5H8.50003C8.56633 5 8.62993 5.02635 8.67681 5.07323C8.72368 5.1201 8.75003 5.1837 8.75003 5.25ZM4.25003 5.75H4.00003C3.93373 5.75 3.87013 5.72365 3.82326 5.67677C3.77638 5.6299 3.75003 5.5663 3.75003 5.5V5.25C3.75003 5.1837 3.77638 5.1201 3.82326 5.07323C3.87013 5.02635 3.93373 5 4.00003 5H4.25003V5.75ZM4.25003 4.25V4.5H4.00003V3.25C4.00003 2.91848 4.13173 2.60053 4.36616 2.36612C4.60056 2.13169 4.91851 2 5.25003 2H6.00003C6.19876 2.00059 6.38918 2.0798 6.52971 2.22032C6.67023 2.36085 6.74943 2.55128 6.75003 2.75C6.75003 2.8163 6.77638 2.8799 6.82326 2.92677C6.87013 2.97365 6.93373 3 7.00003 3C7.06633 3 7.12993 2.97365 7.17681 2.92677C7.22368 2.8799 7.25003 2.8163 7.25003 2.75C7.25003 2.6837 7.27638 2.6201 7.32326 2.57323C7.37013 2.52635 7.43373 2.5 7.50003 2.5H7.75003C7.94876 2.5006 8.13918 2.5798 8.27971 2.72032C8.42023 2.86085 8.49943 3.05128 8.50003 3.25V4.5H8.25003V4.25C8.24943 4.05128 8.17023 3.86085 8.02971 3.72032C7.88918 3.5798 7.69876 3.5006 7.50003 3.5H5.00003C4.80131 3.5006 4.61088 3.5798 4.47036 3.72032C4.32983 3.86085 4.25063 4.05128 4.25003 4.25ZM6.25003 7.25C6.33728 7.24948 6.42288 7.22612 6.49833 7.18227C6.57376 7.1384 6.63641 7.07557 6.68003 7H7.36503C7.27878 7.09565 7.18046 7.1797 7.07253 7.25H5.42753C5.21886 7.11515 5.04746 6.93 4.92906 6.71158C4.81068 6.49315 4.74911 6.24845 4.75003 6V4.25C4.75003 4.1837 4.77638 4.1201 4.82326 4.07323C4.87013 4.02635 4.93373 4 5.00003 4H7.50003C7.56633 4 7.62993 4.02635 7.67681 4.07323C7.72368 4.1201 7.75003 4.1837 7.75003 4.25V6C7.74926 6.1704 7.71966 6.33945 7.66253 6.5H6.68003C6.63608 6.42387 6.57283 6.3607 6.49668 6.3168C6.42053 6.27292 6.33416 6.24988 6.24626 6.25C6.15838 6.25015 6.07206 6.27345 5.99603 6.31757C5.92003 6.36167 5.85698 6.42508 5.81326 6.50133C5.76953 6.57758 5.74671 6.664 5.74703 6.7519C5.74736 6.83978 5.77086 6.92605 5.81516 7.00195C5.85943 7.07787 5.92296 7.14078 5.99931 7.18433C6.07566 7.22788 6.16213 7.25052 6.25003 7.25ZM2.75003 8C2.75003 7.9337 2.77638 7.8701 2.82326 7.82323C2.87013 7.77635 2.93373 7.75 3.00003 7.75H9.50003C9.56633 7.75 9.62993 7.77635 9.67681 7.82323C9.72368 7.8701 9.75003 7.9337 9.75003 8V12.25H2.75003V8ZM1.75003 10.5C1.75086 10.0429 1.93028 9.60418 2.25003 9.2775V10.75H2.00003C1.91557 10.7513 1.8316 10.7631 1.75003 10.785V10.5ZM2.00003 11.25H2.25003V12.25H2.00003C1.86742 12.25 1.74025 12.1973 1.64648 12.1035C1.55271 12.0098 1.50003 11.8826 1.50003 11.75C1.50003 11.6174 1.55271 11.4902 1.64648 11.3965C1.74025 11.3027 1.86742 11.25 2.00003 11.25ZM14.75 13.25H1.25003C1.18373 13.25 1.12014 13.2236 1.07325 13.1768C1.02637 13.1299 1.00003 13.0663 1.00003 13C1.00003 12.9337 1.02637 12.8701 1.07325 12.8232C1.12014 12.7764 1.18373 12.75 1.25003 12.75H14.75C14.8163 12.75 14.8799 12.7764 14.9268 12.8232C14.9737 12.8701 15 12.9337 15 13C15 13.0663 14.9737 13.1299 14.9268 13.1768C14.8799 13.2236 14.8163 13.25 14.75 13.25Z" fill="#4B5563"/>
<path d="M6.25 11C6.41165 11.0001 6.57087 10.9609 6.7141 10.886C6.8573 10.811 6.9802 10.7024 7.07228 10.5695C7.16433 10.4367 7.22283 10.2835 7.2427 10.1231C7.2626 9.96267 7.24333 9.79983 7.1865 9.6485C7.1623 9.58778 7.11528 9.53895 7.0555 9.51248C6.99575 9.486 6.92797 9.484 6.86675 9.50688C6.80552 9.52978 6.75567 9.57573 6.72792 9.6349C6.70017 9.6941 6.6967 9.7618 6.71825 9.8235C6.75587 9.9232 6.76065 10.0323 6.73187 10.1349C6.70312 10.2375 6.64232 10.3283 6.55837 10.3939C6.47442 10.4595 6.3717 10.4966 6.26517 10.4998C6.15865 10.5029 6.0539 10.472 5.96623 10.4114C5.87855 10.3508 5.81252 10.2638 5.77777 10.163C5.74302 10.0623 5.74137 9.9531 5.77305 9.85135C5.80472 9.7496 5.86808 9.66065 5.95388 9.59745C6.03968 9.53423 6.14342 9.5001 6.25 9.5C6.3163 9.5 6.3799 9.47365 6.42677 9.42677C6.47365 9.3799 6.5 9.3163 6.5 9.25C6.5 9.1837 6.47365 9.1201 6.42677 9.07323C6.3799 9.02635 6.3163 9 6.25 9C5.98478 9 5.73043 9.10535 5.5429 9.2929C5.35535 9.48043 5.25 9.73478 5.25 10C5.25 10.2652 5.35535 10.5196 5.5429 10.7071C5.73043 10.8946 5.98478 11 6.25 11Z" fill="#4B5563"/>
<path d="M10.0725 5.92686C10.1194 5.97376 10.183 6.00009 10.2493 6.00011C10.2725 6.00011 10.2955 5.99684 10.3178 5.99036L11.4428 5.66936C12.0239 5.98336 12.6986 6.07774 13.3435 5.93521C13.9885 5.79271 14.5606 5.42281 14.9552 4.89319C15.3499 4.36356 15.5408 3.70959 15.4929 3.05081C15.4451 2.39205 15.1617 1.77251 14.6947 1.30546C14.2276 0.838412 13.6081 0.555067 12.9493 0.507227C12.2906 0.459387 11.6366 0.650247 11.1069 1.04491C10.5773 1.43958 10.2074 2.01169 10.0649 2.65664C9.92242 3.30159 10.0168 3.97626 10.3308 4.55736L10.0095 5.68236C9.99739 5.72504 9.99684 5.77019 10.0079 5.81314C10.019 5.85611 10.0413 5.89536 10.0725 5.92686ZM12.7493 1.00011C13.0955 1.00003 13.4371 1.07985 13.7475 1.23336C14.0578 1.38688 14.3285 1.60994 14.5386 1.8852C14.7486 2.16045 14.8923 2.48046 14.9584 2.82034C15.0246 3.16019 15.0114 3.51074 14.9199 3.84466C14.8284 4.17859 14.6611 4.48691 14.4309 4.74559C14.2008 5.00429 13.9141 5.20636 13.5931 5.33614C13.2721 5.46589 12.9254 5.51981 12.5802 5.49371C12.2349 5.46761 11.9004 5.36216 11.6025 5.18561C11.5732 5.16814 11.5406 5.15689 11.5068 5.15259C11.4729 5.14829 11.4385 5.15101 11.4058 5.16061L10.6133 5.38686L10.8398 4.59461C10.8492 4.56179 10.8518 4.52741 10.8475 4.49354C10.8432 4.45969 10.8321 4.42704 10.8148 4.39761C10.6123 4.05604 10.5037 3.66696 10.5003 3.26989C10.4968 2.87281 10.5984 2.48188 10.7949 2.13681C10.9914 1.79173 11.2757 1.5048 11.619 1.30516C11.9622 1.10552 12.3522 1.00027 12.7493 1.00011Z" fill="#4B5563"/>
<path d="M12.75 2.5C12.8163 2.5 12.8799 2.47366 12.9268 2.42678C12.9736 2.37989 13 2.3163 13 2.25V2C13 1.9337 12.9736 1.87011 12.9268 1.82322C12.8799 1.77634 12.8163 1.75 12.75 1.75C12.6837 1.75 12.6201 1.77634 12.5732 1.82322C12.5264 1.87011 12.5 1.9337 12.5 2V2.25C12.5 2.3163 12.5264 2.37989 12.5732 2.42678C12.6201 2.47366 12.6837 2.5 12.75 2.5Z" fill="#4B5563"/>
<path d="M12.25 4.5C12.25 4.5663 12.2764 4.6299 12.3232 4.67677C12.3701 4.72365 12.4337 4.75 12.5 4.75H13C13.0663 4.75 13.1299 4.72365 13.1768 4.67677C13.2236 4.6299 13.25 4.5663 13.25 4.5C13.25 4.4337 13.2236 4.3701 13.1768 4.32323C13.1299 4.27635 13.0663 4.25 13 4.25V3C13 2.9337 12.9736 2.8701 12.9268 2.82323C12.8799 2.77635 12.8163 2.75 12.75 2.75H12.5C12.4337 2.75 12.3701 2.77635 12.3232 2.82323C12.2764 2.8701 12.25 2.9337 12.25 3C12.25 3.0663 12.2764 3.1299 12.3232 3.17677C12.3701 3.22365 12.4337 3.25 12.5 3.25V4.25C12.4337 4.25 12.3701 4.27635 12.3232 4.32323C12.2764 4.3701 12.25 4.4337 12.25 4.5Z" fill="#4B5563"/>
</g>
<defs>
<clipPath id="clip0_889_14897">
<rect width="16" height="16" fill="white"/>
</clipPath>
</defs>
</svg>
