<svg width="121" height="120" viewBox="0 0 121 120" fill="none" xmlns="http://www.w3.org/2000/svg">
<g clip-path="url(#clip0_601_1212)">
<path d="M79.7849 34.8214C81.6214 34.8214 83.4167 34.2768 84.9437 33.2565C86.4708 32.2362 87.6609 30.7859 88.3638 29.0892C89.0666 27.3925 89.2505 25.5254 88.8922 23.7242C88.5339 21.9229 87.6495 20.2684 86.3509 18.9697C85.0522 17.6711 83.3977 16.7867 81.5964 16.4284C79.7952 16.0701 77.9281 16.254 76.2314 16.9568C74.5346 17.6597 73.0844 18.8498 72.0641 20.3769C71.0438 21.9039 70.4992 23.6992 70.4992 25.5357C70.502 27.9976 71.4812 30.3578 73.222 32.0986C74.9628 33.8394 77.323 34.8186 79.7849 34.8214ZM79.7849 19.1071C81.0563 19.1071 82.2992 19.4842 83.3564 20.1906C84.4136 20.8969 85.2375 21.9009 85.7241 23.0756C86.2107 24.2503 86.338 25.5428 86.0899 26.7899C85.8419 28.0369 85.2296 29.1824 84.3306 30.0814C83.4315 30.9805 82.286 31.5927 81.039 31.8408C79.792 32.0888 78.4994 31.9615 77.3248 31.4749C76.1501 30.9884 75.1461 30.1644 74.4397 29.1072C73.7333 28.0501 73.3563 26.8072 73.3563 25.5357C73.3563 23.8308 74.0336 22.1956 75.2392 20.99C76.4448 19.7844 78.0799 19.1071 79.7849 19.1071ZM41.2134 34.8214C43.05 34.8214 44.8453 34.2768 46.3723 33.2565C47.8993 32.2362 49.0895 30.7859 49.7923 29.0892C50.4951 27.3925 50.679 25.5254 50.3207 23.7242C49.9624 21.9229 49.0781 20.2684 47.7794 18.9697C46.4808 17.6711 44.8263 16.7867 43.025 16.4284C41.2237 16.0701 39.3567 16.254 37.66 16.9568C35.9632 17.6597 34.513 18.8498 33.4927 20.3769C32.4723 21.9039 31.9277 23.6992 31.9277 25.5357C31.9306 27.9976 32.9098 30.3578 34.6506 32.0986C36.3914 33.8394 38.7516 34.8186 41.2134 34.8214ZM41.2134 19.1071C42.4849 19.1071 43.7278 19.4842 44.785 20.1906C45.8421 20.8969 46.6661 21.9009 47.1527 23.0756C47.6392 24.2503 47.7665 25.5428 47.5185 26.7899C47.2704 28.0369 46.6582 29.1824 45.7591 30.0814C44.8601 30.9805 43.7146 31.5927 42.4676 31.8408C41.2206 32.0888 39.928 31.9615 38.7533 31.4749C37.5787 30.9884 36.5747 30.1644 35.8683 29.1072C35.1619 28.0501 34.7849 26.8072 34.7849 25.5357C34.7849 23.8308 35.4622 22.1956 36.6678 20.99C37.8734 19.7844 39.5085 19.1071 41.2134 19.1071Z" fill="#17CF98"/>
<path d="M1.92857 108.393C2.71755 108.393 3.35714 107.753 3.35714 106.964C3.35714 106.175 2.71755 105.536 1.92857 105.536C1.13959 105.536 0.5 106.175 0.5 106.964C0.5 107.753 1.13959 108.393 1.92857 108.393Z" fill="#60A498"/>
<path d="M8.35658 105.536H6.21373C5.83485 105.536 5.47148 105.686 5.20358 105.954C4.93567 106.222 4.78516 106.585 4.78516 106.964C4.78516 107.343 4.93567 107.706 5.20358 107.974C5.47148 108.242 5.83485 108.393 6.21373 108.393H8.35658C8.73547 108.393 9.09883 108.242 9.36674 107.974C9.63465 107.706 9.78516 107.343 9.78516 106.964C9.78516 106.585 9.63465 106.222 9.36674 105.954C9.09883 105.686 8.73547 105.536 8.35658 105.536ZM114.785 105.536H112.642C112.263 105.536 111.9 105.686 111.632 105.954C111.364 106.222 111.214 106.585 111.214 106.964C111.214 107.343 111.364 107.706 111.632 107.974C111.9 108.242 112.263 108.393 112.642 108.393H114.785C115.164 108.393 115.527 108.242 115.795 107.974C116.063 107.706 116.214 107.343 116.214 106.964C116.214 106.585 116.063 106.222 115.795 105.954C115.527 105.686 115.164 105.536 114.785 105.536Z" fill="#60A498"/>
<path d="M119.071 108.393C119.86 108.393 120.5 107.753 120.5 106.964C120.5 106.175 119.86 105.536 119.071 105.536C118.282 105.536 117.643 106.175 117.643 106.964C117.643 107.753 118.282 108.393 119.071 108.393Z" fill="#60A498"/>
<path d="M84.8948 111.25H78.9605C78.6007 111.278 78.2647 111.44 78.0196 111.705C77.7745 111.97 77.6384 112.318 77.6384 112.679C77.6384 113.039 77.7745 113.387 78.0196 113.652C78.2647 113.917 78.6007 114.079 78.9605 114.107H84.8948C85.2546 114.079 85.5906 113.917 85.8357 113.652C86.0808 113.387 86.2169 113.039 86.2169 112.679C86.2169 112.318 86.0808 111.97 85.8357 111.705C85.5906 111.44 85.2546 111.278 84.8948 111.25ZM42.0377 111.25H36.1034C35.7436 111.278 35.4076 111.44 35.1625 111.705C34.9174 111.97 34.7812 112.318 34.7812 112.679C34.7812 113.039 34.9174 113.387 35.1625 113.652C35.4076 113.917 35.7436 114.079 36.1034 114.107H42.0377C42.3974 114.079 42.7334 113.917 42.9785 113.652C43.2236 113.387 43.3598 113.039 43.3598 112.679C43.3598 112.318 43.2236 111.97 42.9785 111.705C42.7334 111.44 42.3974 111.278 42.0377 111.25ZM74.7848 111.25H46.2134C45.8345 111.25 45.4711 111.401 45.2032 111.668C44.9353 111.936 44.7848 112.3 44.7848 112.679C44.7848 113.057 44.9353 113.421 45.2032 113.689C45.4711 113.957 45.8345 114.107 46.2134 114.107H57.5991V115.536H51.9277C51.5488 115.536 51.1854 115.686 50.9175 115.954C50.6496 116.222 50.4991 116.585 50.4991 116.964C50.4991 117.343 50.6496 117.707 50.9175 117.974C51.1854 118.242 51.5488 118.393 51.9277 118.393H69.7848C70.1637 118.393 70.527 118.242 70.7949 117.974C71.0629 117.707 71.2134 117.343 71.2134 116.964C71.2134 116.585 71.0629 116.222 70.7949 115.954C70.527 115.686 70.1637 115.536 69.7848 115.536H63.3991V114.107H74.7848C75.1637 114.107 75.527 113.957 75.7949 113.689C76.0629 113.421 76.2134 113.057 76.2134 112.679C76.2134 112.3 76.0629 111.936 75.7949 111.668C75.527 111.401 75.1637 111.25 74.7848 111.25Z" fill="#17CF98"/>
<path d="M108.157 105.535H89.3972L92.3758 74.7762C93.0465 74.6712 93.6577 74.3303 94.0994 73.8148C94.5411 73.2992 94.7842 72.6429 94.7851 71.9641V44.1069C94.7824 41.9933 94.2278 39.917 93.1762 38.0835C92.1246 36.25 90.6124 34.7229 88.7894 33.6534C88.1059 34.4156 87.3293 35.089 86.4779 35.6576C88.1021 36.3936 89.4798 37.5818 90.4464 39.0802C91.4129 40.5787 91.9273 42.3238 91.9279 44.1069V71.9641H87.6422V42.6784C87.6422 42.2995 87.4917 41.9361 87.2238 41.6682C86.9559 41.4003 86.5925 41.2498 86.2136 41.2498C85.8348 41.2498 85.4714 41.4003 85.2035 41.6682C84.9356 41.9361 84.7851 42.2995 84.7851 42.6784V73.3926C84.7851 73.961 84.5593 74.506 84.1574 74.9079C83.7556 75.3097 83.2105 75.5355 82.6422 75.5355C82.0739 75.5355 81.5289 75.3097 81.127 74.9079C80.7251 74.506 80.4994 73.961 80.4994 73.3926V42.6784C80.4994 42.2995 80.3489 41.9361 80.0809 41.6682C79.813 41.4003 79.4497 41.2498 79.0708 41.2498C78.6919 41.2498 78.3285 41.4003 78.0606 41.6682C77.7927 41.9361 77.6422 42.2995 77.6422 42.6784V71.9641H73.3565V44.1069C73.3563 42.8029 73.6317 41.5136 74.1647 40.3234C74.6977 39.1333 75.4763 38.0693 76.4494 37.2012C75.4645 36.9183 74.5198 36.5109 73.6379 35.9891C71.6194 38.2111 70.5005 41.105 70.4994 44.1069V57.9812L63.9594 59.8669C64.7051 60.5589 65.2923 61.4039 65.6808 62.3441L70.4994 60.9548V64.4612L66.2051 65.2805C66.1661 66.3597 65.8693 67.4139 65.3394 68.3548L70.4994 67.3691V71.9641C70.5002 72.6428 70.7432 73.299 71.1848 73.8146C71.6263 74.3301 72.2374 74.6711 72.9079 74.7762L75.8865 105.535H45.1122L48.0908 74.7762C48.7614 74.6711 49.3724 74.3301 49.8139 73.8146C50.2555 73.299 50.4985 72.6428 50.4994 71.9641V67.5062L58.5044 69.0341C58.7596 69.083 59.0188 69.1076 59.2786 69.1076C60.1249 69.1071 60.9495 68.8405 61.6358 68.3455C62.2636 67.8952 62.7522 67.2775 63.046 66.563C63.3398 65.8484 63.4268 65.0656 63.2973 64.304C63.1677 63.5423 62.8267 62.8324 62.3132 62.2551C61.7997 61.6778 61.1343 61.2565 60.3929 61.0391L50.4994 58.1876V44.1069C50.4982 41.105 49.3793 38.2111 47.3608 35.9891C46.479 36.5109 45.5342 36.9183 44.5494 37.2012C45.5224 38.0693 46.301 39.1333 46.834 40.3234C47.367 41.5136 47.6425 42.8029 47.6422 44.1069V57.3641L43.4994 56.1691L44.1672 42.0312C44.185 41.6527 44.0517 41.2826 43.7967 41.0024C43.5416 40.7222 43.1857 40.5547 42.8072 40.5369C42.4287 40.5191 42.0586 40.6524 41.7784 40.9075C41.4982 41.1625 41.3307 41.5184 41.3129 41.8969L40.5915 57.1619C40.5764 57.483 40.6699 57.7998 40.8571 58.0611C41.0443 58.3224 41.3141 58.5129 41.6229 58.6019L59.6022 63.7855C59.8275 63.8543 60.0291 63.9845 60.1844 64.1616C60.3396 64.3387 60.4424 64.5556 60.4812 64.7879C60.5199 65.0202 60.4931 65.2587 60.4037 65.4766C60.3143 65.6945 60.1658 65.8831 59.9751 66.0212C59.8417 66.1179 59.6899 66.1861 59.529 66.2217C59.3682 66.2573 59.2018 66.2596 59.0401 66.2284L36.1501 61.8591L34.7815 41.8669C34.772 41.6774 34.7249 41.4916 34.6428 41.3204C34.5607 41.1493 34.4453 40.9963 34.3034 40.8702C34.1615 40.7442 33.9959 40.6477 33.8162 40.5863C33.6366 40.525 33.4466 40.5001 33.2572 40.5131C33.0678 40.526 32.883 40.5766 32.7134 40.6618C32.5438 40.747 32.3928 40.8652 32.2694 41.0094C32.146 41.1536 32.0525 41.3209 31.9945 41.5016C31.9365 41.6824 31.9151 41.8728 31.9315 42.0619L33.3751 63.1534C33.3965 63.4683 33.5217 63.7673 33.731 64.0035C33.9404 64.2397 34.2221 64.3999 34.5322 64.4591L47.6422 66.9605V71.9641H29.0708V44.1069C29.0713 42.3237 29.5856 40.5784 30.5522 39.0798C31.5187 37.5813 32.8965 36.3929 34.5208 35.6569C33.6695 35.0885 32.8929 34.4154 32.2094 33.6534C30.3863 34.7229 28.8741 36.25 27.8225 38.0835C26.7709 39.917 26.2163 41.9933 26.2136 44.1069V71.9641C26.2145 72.6428 26.4575 73.299 26.8991 73.8146C27.3406 74.3301 27.9516 74.6711 28.6222 74.7762L31.6008 105.535H12.8422C12.639 105.509 12.4324 105.526 12.2363 105.586C12.0402 105.645 11.8591 105.746 11.7051 105.881C11.5511 106.017 11.4277 106.183 11.3431 106.37C11.2586 106.557 11.2148 106.759 11.2148 106.964C11.2148 107.169 11.2586 107.372 11.3431 107.558C11.4277 107.745 11.5511 107.912 11.7051 108.047C11.8591 108.182 12.0402 108.283 12.2363 108.342C12.4324 108.402 12.639 108.419 12.8422 108.393H108.157C108.36 108.419 108.566 108.402 108.762 108.342C108.958 108.283 109.14 108.182 109.294 108.047C109.448 107.912 109.571 107.745 109.656 107.558C109.74 107.372 109.784 107.169 109.784 106.964C109.784 106.759 109.74 106.557 109.656 106.37C109.571 106.183 109.448 106.017 109.294 105.881C109.14 105.746 108.958 105.645 108.762 105.586C108.566 105.526 108.36 105.509 108.157 105.535ZM75.7829 74.8212H77.8529C78.1601 75.8529 78.7923 76.7577 79.6552 77.4011C80.5182 78.0445 81.5658 78.3921 82.6422 78.3921C83.7186 78.3921 84.7663 78.0445 85.6292 77.4011C86.4922 76.7577 87.1243 75.8529 87.4315 74.8212H89.5015L86.5272 105.535H78.7572L75.7829 74.8212ZM31.4972 74.8212H45.2158L42.2415 105.535H34.4715L31.4972 74.8212ZM49.2886 5.89265C49.7125 5.89265 50.1268 5.76697 50.4792 5.53151C50.8315 5.29605 51.1062 4.96138 51.2684 4.56983C51.4306 4.17827 51.473 3.74741 51.3903 3.33174C51.3076 2.91607 51.1036 2.53425 50.8039 2.23456C50.5042 1.93488 50.1224 1.73079 49.7067 1.64811C49.291 1.56543 48.8602 1.60786 48.4686 1.77005C48.0771 1.93224 47.7424 2.20689 47.5069 2.55928C47.2715 2.91168 47.1458 3.32597 47.1458 3.74979C47.1464 4.31794 47.3723 4.86265 47.774 5.26439C48.1758 5.66613 48.7205 5.89208 49.2886 5.89265ZM49.2886 2.67836C49.5006 2.67836 49.7077 2.7412 49.8839 2.85893C50.0601 2.97666 50.1974 3.144 50.2785 3.33977C50.3596 3.53555 50.3808 3.75098 50.3395 3.95882C50.2981 4.16665 50.1961 4.35756 50.0463 4.50741C49.8964 4.65725 49.7055 4.75929 49.4977 4.80063C49.2898 4.84197 49.0744 4.82076 48.8786 4.73966C48.6828 4.65857 48.5155 4.52124 48.3978 4.34505C48.2801 4.16885 48.2172 3.9617 48.2172 3.74979C48.2174 3.46569 48.3303 3.19328 48.5312 2.99239C48.7321 2.7915 49.0045 2.67855 49.2886 2.67836ZM115.003 37.1426C114.72 37.1426 114.444 37.2264 114.209 37.3834C113.974 37.5404 113.791 37.7635 113.683 38.0245C113.575 38.2856 113.547 38.5728 113.602 38.8499C113.657 39.127 113.793 39.3816 113.993 39.5814C114.193 39.7812 114.447 39.9172 114.724 39.9723C115.001 40.0275 115.289 39.9992 115.55 39.891C115.811 39.7829 116.034 39.5998 116.191 39.3649C116.348 39.13 116.431 38.8538 116.431 38.5712C116.431 38.1925 116.28 37.8293 116.013 37.5615C115.745 37.2937 115.382 37.143 115.003 37.1426ZM115.003 39.2855C114.862 39.2855 114.724 39.2436 114.606 39.1651C114.489 39.0866 114.397 38.9751 114.343 38.8446C114.289 38.714 114.275 38.5704 114.302 38.4319C114.33 38.2933 114.398 38.166 114.498 38.0661C114.598 37.9662 114.725 37.8982 114.864 37.8707C115.002 37.8431 115.146 37.8572 115.276 37.9113C115.407 37.9654 115.518 38.0569 115.597 38.1744C115.675 38.2918 115.717 38.4299 115.717 38.5712C115.717 38.7606 115.642 38.9422 115.508 39.0761C115.374 39.21 115.192 39.2853 115.003 39.2855ZM87.6422 6.60693C87.3597 6.60693 87.0835 6.69072 86.8485 6.84769C86.6136 7.00467 86.4305 7.22778 86.3224 7.48881C86.2143 7.74985 86.186 8.03709 86.2411 8.31421C86.2962 8.59132 86.4323 8.84587 86.6321 9.04566C86.8319 9.24545 87.0864 9.38151 87.3635 9.43663C87.6406 9.49175 87.9279 9.46346 88.1889 9.35533C88.4499 9.24721 88.6731 9.0641 88.83 8.82918C88.987 8.59425 89.0708 8.31805 89.0708 8.03551C89.0704 7.65674 88.9198 7.2936 88.652 7.02577C88.3841 6.75794 88.021 6.60731 87.6422 6.60693ZM87.6422 8.74979C87.5009 8.74979 87.3628 8.7079 87.2454 8.62941C87.1279 8.55093 87.0364 8.43937 86.9823 8.30885C86.9282 8.17833 86.9141 8.03471 86.9417 7.89615C86.9692 7.7576 87.0372 7.63032 87.1371 7.53043C87.237 7.43053 87.3643 7.36251 87.5029 7.33494C87.6414 7.30738 87.785 7.32153 87.9156 7.37559C88.0461 7.42965 88.1576 7.52121 88.2361 7.63867C88.3146 7.75613 88.3565 7.89423 88.3565 8.03551C88.3563 8.22489 88.281 8.40646 88.1471 8.54037C88.0132 8.67429 87.8316 8.7496 87.6422 8.74979ZM100.142 30.5355C99.8597 30.5355 99.5835 30.6193 99.3485 30.7763C99.1136 30.9332 98.9305 31.1563 98.8224 31.4174C98.7143 31.6784 98.686 31.9657 98.7411 32.2428C98.7962 32.5199 98.9323 32.7744 99.1321 32.9742C99.3319 33.174 99.5864 33.3101 99.8635 33.3652C100.141 33.4203 100.428 33.392 100.689 33.2839C100.95 33.1758 101.173 32.9927 101.33 32.7577C101.487 32.5228 101.571 32.2466 101.571 31.9641C101.57 31.5853 101.42 31.2222 101.152 30.9543C100.884 30.6865 100.521 30.5359 100.142 30.5355ZM100.142 32.6784C100.001 32.6784 99.8628 32.6365 99.7454 32.558C99.6279 32.4795 99.5364 32.3679 99.4823 32.2374C99.4282 32.1069 99.4141 31.9633 99.4417 31.8247C99.4692 31.6862 99.5372 31.5589 99.6371 31.459C99.737 31.3591 99.8643 31.2911 100.003 31.2635C100.141 31.236 100.285 31.2501 100.416 31.3042C100.546 31.3582 100.658 31.4498 100.736 31.5672C100.815 31.6847 100.857 31.8228 100.857 31.9641C100.856 32.1535 100.781 32.335 100.647 32.4689C100.513 32.6029 100.332 32.6782 100.142 32.6784ZM23.1779 26.9641C23.1779 26.6815 23.0941 26.4053 22.9372 26.1704C22.7802 25.9355 22.5571 25.7524 22.2961 25.6442C22.035 25.5361 21.7478 25.5078 21.4707 25.563C21.1935 25.6181 20.939 25.7541 20.7392 25.9539C20.5394 26.1537 20.4034 26.4083 20.3482 26.6854C20.2931 26.9625 20.3214 27.2497 20.4295 27.5108C20.5377 27.7718 20.7208 27.9949 20.9557 28.1519C21.1906 28.3089 21.4668 28.3926 21.7494 28.3926C22.1281 28.3923 22.4913 28.2416 22.7591 27.9738C23.0269 27.706 23.1776 27.3428 23.1779 26.9641ZM21.0351 26.9641C21.0351 26.8228 21.077 26.6847 21.1555 26.5672C21.2339 26.4498 21.3455 26.3582 21.476 26.3042C21.6065 26.2501 21.7502 26.236 21.8887 26.2635C22.0273 26.2911 22.1545 26.3591 22.2544 26.459C22.3543 26.5589 22.4224 26.6862 22.4499 26.8247C22.4775 26.9633 22.4633 27.1069 22.4093 27.2374C22.3552 27.3679 22.2637 27.4795 22.1462 27.558C22.0287 27.6365 21.8906 27.6784 21.7494 27.6784C21.56 27.6782 21.3784 27.6029 21.2445 27.4689C21.1106 27.335 21.0353 27.1535 21.0351 26.9641Z" fill="#60A498"/>
<path d="M8.27681 49.4723L9.33895 48.0759L8.66824 47.6959L7.98609 49.2602H7.96395L7.27109 47.7066L6.58895 48.098L7.63967 49.4616V49.4837L5.99609 49.2716V50.0316L7.65038 49.8195V49.8416L6.58895 51.2045L7.22538 51.6073L7.95252 50.0316H7.97467L8.64538 51.5959L9.34967 51.1937L8.27681 49.8523V49.8302L9.96395 50.0316V49.2716L8.27681 49.4945V49.4723ZM6.94895 6.00232L6.33752 6.78732L6.70467 7.01946L7.12324 6.1116H7.13538L7.52181 7.01303L7.92752 6.78089L7.30967 6.00874V5.99589L8.28109 6.1116V5.67446L7.30967 5.80303V5.79017L7.92109 4.98589L7.53467 4.7666L7.14252 5.66732H7.12895L6.73038 4.77303L6.33752 4.99803L6.94252 5.78374V5.7966L5.99609 5.67446V6.1116L6.94895 5.98946V6.00232ZM116.949 8.40803V7.66303L115.294 7.88232V7.86017L116.335 6.49017L115.678 6.11732L115.009 7.6516H114.987L114.308 6.12803L113.638 6.51232L114.669 7.84946V7.8716L113.058 7.66303V8.40803L114.68 8.20017V8.22232L113.638 9.55946L114.263 9.95446L114.976 8.40803H114.998L115.655 9.94303L116.346 9.54874L115.294 8.23303V8.21089L116.949 8.40803ZM60.7504 18.9559L61.649 17.7737L61.0818 17.4523L60.5054 18.7759H60.4861L59.8997 17.4616L59.3225 17.793L60.2118 18.9466V18.9652L58.8211 18.7859V19.4287L60.2211 19.2487V19.268L59.3225 20.4216L59.8611 20.7623L60.4768 19.4287H60.4954L61.0625 20.7523L61.6582 20.4123L60.7504 19.2773V19.258L62.1782 19.4287V18.7859L60.7504 18.9745V18.9559Z" fill="#17CF98"/>
</g>
<defs>
<clipPath id="clip0_601_1212">
<rect width="120" height="120" fill="white" transform="translate(0.5)"/>
</clipPath>
</defs>
</svg>
