<svg width="16" height="16" viewBox="0 0 16 16" fill="none" xmlns="http://www.w3.org/2000/svg">
<g clip-path="url(#clip0_889_14859)">
<path d="M15.25 7.235C15.251 7.2242 15.251 7.2133 15.25 7.2025C15.2514 7.19172 15.2514 7.18078 15.25 7.17C15.2514 7.16005 15.2514 7.14995 15.25 7.14C15.25 7.14 15.25 7.14 15.25 7.125C15.2439 7.1154 15.2373 7.1062 15.23 7.0975C15.2229 7.08872 15.2144 7.08115 15.205 7.075C15.197 7.06617 15.1877 7.0586 15.1775 7.0525L13.25 5.9625V1C13.25 0.933695 13.2236 0.870108 13.1768 0.823223C13.1299 0.77634 13.0663 0.75 13 0.75H2.99997C2.93367 0.75 2.87009 0.77634 2.82319 0.823223C2.77632 0.870108 2.74997 0.933695 2.74997 1V5.9625L0.874982 7.0325C0.864749 7.0386 0.855482 7.04618 0.847482 7.055L0.822482 7.0775C0.815199 7.0862 0.808517 7.0954 0.802482 7.105C0.802482 7.105 0.802482 7.105 0.802482 7.12C0.801044 7.12995 0.801044 7.14005 0.802482 7.15C0.801067 7.16078 0.801067 7.17172 0.802482 7.1825C0.801459 7.1933 0.801459 7.2042 0.802482 7.215L0.749982 7.25V15C0.749982 15 0.749982 15.02 0.749982 15.03C0.747402 15.0466 0.747402 15.0634 0.749982 15.08C0.754894 15.0969 0.762492 15.113 0.772482 15.1275C0.772912 15.1366 0.772912 15.1459 0.772482 15.155C0.791027 15.1743 0.812042 15.1911 0.834982 15.205L0.857482 15.22C0.901504 15.2424 0.950667 15.2528 0.999982 15.25H15C15.0663 15.25 15.1299 15.2236 15.1768 15.1768C15.2236 15.1299 15.25 15.0663 15.25 15V7.25C15.25 7.25 15.25 7.25 15.25 7.235ZM1.24998 7.68L6.27497 10.5525L1.24998 14.5V7.68ZM6.74997 10.82L7.87997 11.4675L7.94247 11.4925C7.96129 11.4972 7.98059 11.4998 7.99997 11.5C8.02074 11.5026 8.04172 11.5026 8.06247 11.5L8.12497 11.475L9.24997 10.83L14.25 14.75H1.72498L6.74997 10.82ZM9.71247 10.57L14.75 7.68V14.5L9.71247 10.57ZM14.5 7.25L13.25 7.9625V6.5375L14.5 7.25ZM12.75 1.25V8.25L9.19249 10.28C9.14759 10.2924 9.10642 10.3156 9.07249 10.3475L7.99997 10.9625L3.24997 8.25V1.25H12.75ZM2.74997 7.9625L1.49998 7.25L2.74997 6.5375V7.9625Z" fill="#4B5563"/>
<path d="M7.14453 4.01758H11.4195C11.4858 4.01758 11.5494 3.99123 11.5963 3.94435C11.6432 3.89745 11.6695 3.83388 11.6695 3.76758C11.6695 3.70128 11.6432 3.63768 11.5963 3.5908C11.5494 3.5439 11.4858 3.51758 11.4195 3.51758H7.14453C7.07823 3.51758 7.01463 3.5439 6.96776 3.5908C6.92086 3.63768 6.89453 3.70128 6.89453 3.76758C6.89453 3.83388 6.92086 3.89745 6.96776 3.94435C7.01463 3.99123 7.07823 4.01758 7.14453 4.01758Z" fill="#4B5563"/>
<path d="M7.14453 5.80273H11.4195C11.4858 5.80273 11.5494 5.77638 11.5963 5.72951C11.6432 5.68261 11.6695 5.61903 11.6695 5.55273C11.6695 5.48641 11.6432 5.42283 11.5963 5.37596C11.5494 5.32906 11.4858 5.30273 11.4195 5.30273H7.14453C7.07823 5.30273 7.01463 5.32906 6.96776 5.37596C6.92086 5.42283 6.89453 5.48641 6.89453 5.55273C6.89453 5.61903 6.92086 5.68261 6.96776 5.72951C7.01463 5.77638 7.07823 5.80273 7.14453 5.80273Z" fill="#4B5563"/>
<path d="M4.29492 7.58984H11.4199C11.4862 7.58984 11.5498 7.56349 11.5967 7.51662C11.6436 7.46974 11.6699 7.40614 11.6699 7.33984C11.6699 7.27354 11.6436 7.20994 11.5967 7.16307C11.5498 7.11619 11.4862 7.08984 11.4199 7.08984H4.29492C4.2286 7.08984 4.16502 7.11619 4.11812 7.16307C4.07125 7.20994 4.04492 7.27354 4.04492 7.33984C4.04492 7.40614 4.07125 7.46974 4.11812 7.51662C4.16502 7.56349 4.2286 7.58984 4.29492 7.58984Z" fill="#4B5563"/>
<path d="M5.12781 5.53979C4.98934 5.54872 4.85294 5.50244 4.74846 5.41109C4.64399 5.31974 4.57994 5.19074 4.57031 5.05229C4.56104 4.99457 4.52991 4.94262 4.48336 4.90724C4.43681 4.87187 4.37841 4.85577 4.32031 4.86229C4.26221 4.85577 4.20384 4.87187 4.15729 4.90724C4.11074 4.94262 4.07959 4.99457 4.07031 5.05229C4.08336 5.24644 4.15881 5.43117 4.28541 5.57894C4.41201 5.72672 4.58296 5.82959 4.77281 5.87229L4.88281 5.90229V6.30729C4.89091 6.36574 4.92166 6.41869 4.96841 6.45469C5.01519 6.49072 5.07424 6.50689 5.13281 6.49979C5.19141 6.50689 5.25046 6.49072 5.29721 6.45469C5.34399 6.41869 5.37471 6.36574 5.38281 6.30729V5.90229L5.49031 5.86979C5.67876 5.82657 5.84821 5.72364 5.97344 5.57634C6.09866 5.42904 6.17299 5.24524 6.18531 5.05229C6.18531 4.57479 5.71281 4.18479 5.13031 4.18479C4.99224 4.19374 4.85619 4.14779 4.75179 4.05697C4.64739 3.96614 4.58306 3.83779 4.57281 3.69979C4.58306 3.56179 4.64739 3.43342 4.75179 3.34259C4.85619 3.25177 4.99224 3.20584 5.13031 3.21479C5.26799 3.20652 5.40339 3.25277 5.50724 3.34352C5.61109 3.43427 5.67506 3.56224 5.68531 3.69979C5.68531 3.76609 5.71166 3.82967 5.75854 3.87657C5.80544 3.92344 5.86901 3.94979 5.93531 3.94979C6.00161 3.94979 6.06521 3.92344 6.11209 3.87657C6.15899 3.82967 6.18531 3.76609 6.18531 3.69979C6.17281 3.50842 6.09966 3.32602 5.97649 3.17902C5.85334 3.03204 5.68654 2.92809 5.50031 2.88229L5.39281 2.85229V2.41729C5.38471 2.35882 5.35399 2.30588 5.30721 2.26987C5.26046 2.23386 5.20141 2.21767 5.14281 2.22479C5.08424 2.21767 5.02519 2.23386 4.97841 2.26987C4.93166 2.30588 4.90091 2.35882 4.89281 2.41729V2.84979L4.78281 2.88229C4.59319 2.92447 4.42226 3.02689 4.29566 3.17424C4.16904 3.32159 4.09349 3.50597 4.08031 3.69979C4.08031 4.17729 4.55531 4.56729 5.13781 4.56729C5.27549 4.55902 5.41089 4.60527 5.51474 4.69602C5.61859 4.78677 5.68256 4.91474 5.69281 5.05229C5.68809 5.12152 5.66966 5.18912 5.63861 5.25119C5.60759 5.31327 5.56456 5.36857 5.51201 5.41389C5.45946 5.45924 5.39846 5.49369 5.33251 5.51532C5.26659 5.53692 5.19701 5.54524 5.12781 5.53979Z" fill="#4B5563"/>
</g>
<defs>
<clipPath id="clip0_889_14859">
<rect width="16" height="16" fill="white"/>
</clipPath>
</defs>
</svg>
