<svg width="24" height="24" viewBox="0 0 24 24" fill="none" xmlns="http://www.w3.org/2000/svg">
<g clip-path="url(#clip0_889_8930)">
<path d="M11.9997 6.62646C10.5751 6.62845 9.20946 7.19526 8.2021 8.20259C7.19478 9.20995 6.62796 10.5756 6.62598 12.0002C6.92223 19.1252 17.081 19.1252 17.3735 12.0002C17.3715 10.5756 16.8047 9.20995 15.7974 8.20259C14.79 7.19526 13.4244 6.62845 11.9997 6.62646ZM11.9997 16.249C10.8732 16.248 9.79311 15.8001 8.9965 15.0034C8.19993 14.2069 7.75199 13.1268 7.75098 12.0002C7.98348 6.37521 16.001 6.37521 16.2485 12.0002C16.2475 13.1268 15.7996 14.2069 15.003 15.0034C14.2064 15.8001 13.1263 16.248 11.9997 16.249Z" fill="#4B5563"/>
<path d="M22.5 9.98625H20.7188C20.5009 9.02032 20.1205 8.09843 19.5938 7.26L20.85 6C20.9544 5.89406 21.013 5.75126 21.013 5.6025C21.013 5.45374 20.9544 5.31094 20.85 5.205L18.795 3.15C18.6891 3.04557 18.5463 2.98703 18.3975 2.98703C18.2487 2.98703 18.1059 3.04557 18 3.15L16.74 4.41375C15.9024 3.88541 14.9802 3.50487 14.0138 3.28875V1.5C14.0138 1.35082 13.9545 1.20774 13.849 1.10225C13.7435 0.996765 13.6004 0.9375 13.4513 0.9375H10.5487C10.3996 0.9375 10.2565 0.996765 10.151 1.10225C10.0455 1.20774 9.98625 1.35082 9.98625 1.5V3.28125C9.0198 3.49737 8.09764 3.87791 7.26 4.40625L6 3.15C5.89406 3.04557 5.75126 2.98703 5.6025 2.98703C5.45374 2.98703 5.31094 3.04557 5.205 3.15L3.15 5.205C3.04557 5.31094 2.98703 5.45374 2.98703 5.6025C2.98703 5.75126 3.04557 5.89406 3.15 6L4.41375 7.26C3.88699 8.09843 3.50657 9.02032 3.28875 9.98625H1.5C1.35082 9.98625 1.20774 10.0455 1.10225 10.151C0.996765 10.2565 0.9375 10.3996 0.9375 10.5487V13.4513C0.9375 13.6004 0.996765 13.7435 1.10225 13.849C1.20774 13.9545 1.35082 14.0138 1.5 14.0138H3.28125C3.49906 14.9797 3.87949 15.9016 4.40625 16.74L3.15 18C3.04557 18.1059 2.98703 18.2487 2.98703 18.3975C2.98703 18.5463 3.04557 18.6891 3.15 18.795L5.205 20.8463C5.25698 20.8989 5.31885 20.9406 5.3871 20.9691C5.45535 20.9976 5.52855 21.0123 5.6025 21.0123C5.67645 21.0123 5.74965 20.9976 5.8179 20.9691C5.88615 20.9406 5.94803 20.8989 6 20.8463L7.26 19.5863C8.09843 20.113 9.02032 20.4935 9.98625 20.7113V22.5C9.98625 22.6492 10.0455 22.7923 10.151 22.8978C10.2565 23.0033 10.3996 23.0625 10.5487 23.0625H13.4513C13.6004 23.0625 13.7435 23.0033 13.849 22.8978C13.9545 22.7923 14.0138 22.6492 14.0138 22.5V20.7188C14.9797 20.5009 15.9016 20.1205 16.74 19.5938L18 20.8463C18.052 20.8989 18.1138 20.9406 18.1821 20.9691C18.2503 20.9976 18.3236 21.0123 18.3975 21.0123C18.4715 21.0123 18.5446 20.9976 18.6129 20.9691C18.6812 20.9406 18.743 20.8989 18.795 20.8463L20.85 18.795C20.9544 18.6891 21.013 18.5463 21.013 18.3975C21.013 18.2487 20.9544 18.1059 20.85 18L19.5863 16.74C20.113 15.9016 20.4935 14.9797 20.7113 14.0138H22.5C22.6492 14.0138 22.7923 13.9545 22.8978 13.849C23.0033 13.7435 23.0625 13.6004 23.0625 13.4513V10.5487C23.0625 10.3996 23.0033 10.2565 22.8978 10.151C22.7923 10.0455 22.6492 9.98625 22.5 9.98625ZM21.9375 12.8888C21.78 12.9075 20.1225 12.84 20.025 12.9375C19.9528 12.9691 19.8882 13.016 19.8358 13.0749C19.7834 13.1338 19.7443 13.2033 19.7213 13.2787C19.5138 14.4709 19.0437 15.602 18.345 16.59C18.3022 16.6929 18.2908 16.8062 18.3122 16.9156C18.3335 17.025 18.3867 17.1257 18.465 17.205L19.6537 18.3937L18.3975 19.65L17.2087 18.4613C17.1294 18.3829 17.0288 18.3298 16.9194 18.3084C16.81 18.2871 16.6967 18.2985 16.5938 18.3412C15.6294 19.0289 14.5238 19.4926 13.3575 19.6987C13.2264 19.7194 13.1069 19.7864 13.0209 19.8875C12.9349 19.9886 12.888 20.1173 12.8888 20.25V21.9375H11.1112V20.25C11.1129 20.1166 11.0664 19.9871 10.9803 19.8852C10.8942 19.7832 10.7743 19.7157 10.6425 19.695C9.47621 19.4889 8.3706 19.0251 7.40625 18.3375C7.30331 18.2948 7.19003 18.2833 7.08064 18.3047C6.97125 18.326 6.87056 18.3792 6.79125 18.4575L5.6025 19.6462L4.34625 18.39L5.535 17.2013C5.6133 17.1219 5.66647 17.0212 5.68781 16.9119C5.70915 16.8025 5.69775 16.6892 5.655 16.5863C4.9674 15.6219 4.50364 14.5163 4.2975 13.35C4.27695 13.2389 4.2249 13.1361 4.1475 13.0538C4.04186 12.9486 3.89906 12.8893 3.75 12.8888H2.0625V11.1112H3.75C3.8463 11.1105 3.94084 11.0853 4.02476 11.038C4.10873 10.9908 4.1793 10.9232 4.23 10.8412C4.26649 10.7799 4.29187 10.7126 4.305 10.6425C4.51702 9.46972 4.98289 8.35751 5.67 7.38375C5.70799 7.28317 5.71616 7.17379 5.69355 7.06871C5.67094 6.9636 5.61851 6.86726 5.5425 6.79125L4.35375 5.6025L5.61 4.34625L6.79875 5.535C6.87435 5.60918 6.96938 5.66051 7.07288 5.68305C7.17637 5.70563 7.28411 5.6985 7.38375 5.6625C8.36224 4.97891 9.4761 4.51343 10.65 4.2975C10.7792 4.27538 10.8963 4.20825 10.9807 4.10805C11.0651 4.00785 11.1114 3.88103 11.1112 3.75V2.0625H12.8888V3.75C12.8887 3.83366 12.9076 3.9162 12.944 3.99154C12.9803 4.06687 13.0332 4.13299 13.0988 4.185C13.172 4.24864 13.2616 4.29022 13.3575 4.305C14.5319 4.5192 15.6461 4.98487 16.6238 5.67C16.7234 5.706 16.8311 5.71312 16.9346 5.69055C17.0381 5.66801 17.1332 5.61667 17.2087 5.5425L18.3975 4.35375L19.6537 5.61L18.465 6.79875C18.389 6.87476 18.3366 6.9711 18.3139 7.07621C18.2913 7.18129 18.2995 7.29067 18.3375 7.39125C19.0246 8.36501 19.4905 9.47723 19.7025 10.65C19.7156 10.7201 19.741 10.7874 19.7775 10.8488C19.8282 10.9306 19.8988 10.9983 19.9827 11.0455C20.0667 11.0928 20.1612 11.118 20.2575 11.1187H21.9375V12.8888Z" fill="#4B5563"/>
</g>
<defs>
<clipPath id="clip0_889_8930">
<rect width="24" height="24" fill="white"/>
</clipPath>
</defs>
</svg>
