<svg width="252" height="252" viewBox="0 0 252 252" fill="none" xmlns="http://www.w3.org/2000/svg">
<path d="M232.579 126.941H220.438C220.072 126.904 219.719 126.781 219.408 126.584C219.097 126.386 218.836 126.119 218.646 125.803L215.716 120.763C215.355 120.138 215.574 119.625 216.204 119.625H228.34C228.707 119.662 229.06 119.784 229.371 119.982C229.682 120.179 229.943 120.447 230.132 120.763L233.062 125.803C233.443 126.428 233.204 126.941 232.579 126.941Z" fill="#E4E5E6"/>
<path d="M171.882 61.2617V66.8145C173.122 67.4656 174.161 68.4437 174.886 69.6428C175.611 70.8419 175.994 72.2164 175.994 73.6175H181.19C181.188 70.8273 180.278 68.1134 178.6 65.8848C176.921 63.6562 174.563 62.0337 171.882 61.2617Z" fill="#9CA3AF"/>
<path d="M7.28848 148.016H5.23741C4.81127 148.016 4.46582 148.361 4.46582 148.787V153.871C4.46582 154.297 4.81127 154.643 5.23741 154.643H7.28848C7.71462 154.643 8.06008 154.297 8.06008 153.871V148.787C8.06008 148.361 7.71462 148.016 7.28848 148.016Z" fill="#EB1C24"/>
<path d="M27.6612 173.727C31.9091 173.727 35.3528 170.284 35.3528 166.036C35.3528 161.788 31.9091 158.344 27.6612 158.344C23.4133 158.344 19.9697 161.788 19.9697 166.036C19.9697 170.284 23.4133 173.727 27.6612 173.727Z" fill="#E4E5E6"/>
<path d="M137.628 173.727C141.876 173.727 145.32 170.284 145.32 166.036C145.32 161.788 141.876 158.344 137.628 158.344C133.38 158.344 129.937 161.788 129.937 166.036C129.937 170.284 133.38 173.727 137.628 173.727Z" fill="#E4E5E6"/>
<path d="M170.011 173.727C174.259 173.727 177.702 170.284 177.702 166.036C177.702 161.788 174.259 158.344 170.011 158.344C165.763 158.344 162.319 161.788 162.319 166.036C162.319 170.284 165.763 173.727 170.011 173.727Z" fill="#E4E5E6"/>
<path d="M232.085 173.727C236.333 173.727 239.777 170.284 239.777 166.036C239.777 161.788 236.333 158.344 232.085 158.344C227.837 158.344 224.394 161.788 224.394 166.036C224.394 170.284 227.837 173.727 232.085 173.727Z" fill="#E4E5E6"/>
<path d="M232.085 169.601C234.073 169.601 235.685 167.989 235.685 166.002C235.685 164.014 234.073 162.402 232.085 162.402C230.098 162.402 228.486 164.014 228.486 166.002C228.486 167.989 230.098 169.601 232.085 169.601Z" fill="#9CA3AF"/>
<path d="M170.01 169.601C171.998 169.601 173.609 167.989 173.609 166.002C173.609 164.014 171.998 162.402 170.01 162.402C168.023 162.402 166.411 164.014 166.411 166.002C166.411 167.989 168.023 169.601 170.01 169.601Z" fill="#9CA3AF"/>
<path d="M137.628 169.601C139.616 169.601 141.228 167.989 141.228 166.002C141.228 164.014 139.616 162.402 137.628 162.402C135.641 162.402 134.029 164.014 134.029 166.002C134.029 167.989 135.641 169.601 137.628 169.601Z" fill="#9CA3AF"/>
<path d="M27.6616 169.601C29.6494 169.601 31.2608 167.989 31.2608 166.002C31.2608 164.014 29.6494 162.402 27.6616 162.402C25.6739 162.402 24.0625 164.014 24.0625 166.002C24.0625 167.989 25.6739 169.601 27.6616 169.601Z" fill="#919396"/>
<mask id="path-12-inside-1_942_8950" fill="white">
<path d="M171.08 143.536H6.54035C5.95104 143.536 5.38587 143.302 4.96917 142.885C4.55246 142.469 4.31836 141.903 4.31836 141.314V72.1752C4.31836 71.5859 4.55246 71.0207 4.96917 70.604C5.38587 70.1872 5.95104 69.9531 6.54035 69.9531H171.08C171.67 69.9531 172.236 70.1871 172.653 70.6037C173.07 71.0202 173.306 71.5854 173.307 72.1752V141.314C173.306 141.904 173.07 142.469 172.653 142.886C172.236 143.302 171.67 143.536 171.08 143.536ZM6.54035 70.842C6.18716 70.8432 5.84881 70.9841 5.59906 71.2339C5.34932 71.4836 5.20844 71.822 5.20716 72.1752V141.314C5.20716 141.668 5.34762 142.007 5.59764 142.257C5.84766 142.507 6.18677 142.647 6.54035 142.647H171.08C171.434 142.647 171.773 142.507 172.023 142.257C172.273 142.007 172.413 141.668 172.413 141.314V72.1752C172.413 71.8216 172.273 71.4825 172.023 71.2325C171.773 70.9824 171.434 70.842 171.08 70.842H6.54035Z"/>
</mask>
<path d="M171.08 143.536V141.536V143.536ZM4.31836 141.314H2.31836H4.31836ZM171.08 69.9531V71.9531V69.9531ZM173.307 72.1752H175.307V72.1708L173.307 72.1752ZM173.307 141.314L175.307 141.318V141.314H173.307ZM6.54035 70.842V68.8419L6.53307 68.842L6.54035 70.842ZM5.20716 72.1752L3.20716 72.1679V72.1752H5.20716ZM5.20716 141.314H3.20716H5.20716ZM172.413 72.1752H170.413H172.413ZM171.08 141.536H6.54035V145.536H171.08V141.536ZM6.54035 141.536C6.48151 141.536 6.42506 141.513 6.38341 141.471L3.55492 144.3C4.34668 145.091 5.42057 145.536 6.54035 145.536V141.536ZM6.38341 141.471C6.34177 141.43 6.31836 141.373 6.31836 141.314H2.31836C2.31836 142.434 2.76315 143.508 3.55492 144.3L6.38341 141.471ZM6.31836 141.314V72.1752H2.31836V141.314H6.31836ZM6.31836 72.1752C6.31836 72.1163 6.34177 72.0598 6.38341 72.0181L3.55492 69.1898C2.76315 69.9816 2.31836 71.0555 2.31836 72.1752H6.31836ZM6.38341 72.0181C6.42504 71.9765 6.4815 71.9531 6.54035 71.9531V67.9531C5.42059 67.9531 4.3467 68.398 3.55492 69.1898L6.38341 72.0181ZM6.54035 71.9531H171.08V67.9531H6.54035V71.9531ZM171.08 71.9531C171.14 71.9531 171.198 71.977 171.24 72.0194L174.066 69.1879C173.273 68.3972 172.2 67.9531 171.08 67.9531L171.08 71.9531ZM171.24 72.0194C171.283 72.0618 171.307 72.1194 171.307 72.1796L175.307 72.1708C175.305 71.0514 174.858 69.9787 174.066 69.1879L171.24 72.0194ZM171.307 72.1752V141.314H175.307V72.1752H171.307ZM171.307 141.31C171.307 141.37 171.283 141.427 171.24 141.47L174.066 144.301C174.858 143.511 175.305 142.438 175.307 141.318L171.307 141.31ZM171.24 141.47C171.198 141.512 171.14 141.536 171.08 141.536L171.08 145.536C172.2 145.536 173.273 145.092 174.066 144.301L171.24 141.47ZM6.53307 68.842C5.65195 68.8452 4.80785 69.1966 4.18482 69.8197L7.01331 72.6481C6.88977 72.7716 6.72238 72.8413 6.54764 72.8419L6.53307 68.842ZM4.18482 69.8197C3.56179 70.4427 3.21038 71.2868 3.20717 72.1679L7.20714 72.1825C7.20651 72.3572 7.13684 72.5245 7.01331 72.6481L4.18482 69.8197ZM3.20716 72.1752V141.314H7.20716V72.1752H3.20716ZM3.20716 141.314C3.20716 142.198 3.5583 143.046 4.18339 143.671L7.01189 140.843C7.13694 140.968 7.20716 141.137 7.20716 141.314H3.20716ZM4.18339 143.671C4.80849 144.296 5.65632 144.647 6.54035 144.647V140.647C6.71722 140.647 6.88683 140.718 7.01189 140.843L4.18339 143.671ZM6.54035 144.647H171.08V140.647H6.54035V144.647ZM171.08 144.647C171.964 144.647 172.812 144.296 173.437 143.671L170.609 140.843C170.734 140.718 170.903 140.647 171.08 140.647V144.647ZM173.437 143.671C174.062 143.046 174.413 142.198 174.413 141.314H170.413C170.413 141.137 170.484 140.968 170.609 140.843L173.437 143.671ZM174.413 141.314V72.1752H170.413V141.314H174.413ZM174.413 72.1752C174.413 71.2912 174.062 70.4434 173.437 69.8183L170.609 72.6466C170.484 72.5216 170.413 72.352 170.413 72.1752H174.413ZM173.437 69.8183C172.812 69.1932 171.964 68.842 171.08 68.842V72.842C170.903 72.842 170.734 72.7717 170.609 72.6466L173.437 69.8183ZM171.08 68.842H6.54035V72.842H171.08V68.842Z" fill="#17CF98" mask="url(#path-12-inside-1_942_8950)"/>
<path d="M28.995 179.542C26.3611 179.542 23.7864 178.761 21.5963 177.298C19.4063 175.834 17.6994 173.754 16.6915 171.321C15.6835 168.887 15.4198 166.209 15.9336 163.626C16.4475 161.043 17.7158 158.67 19.5783 156.807C21.4407 154.944 23.8137 153.676 26.397 153.162C28.9803 152.648 31.6579 152.912 34.0914 153.92C36.5248 154.928 38.6047 156.635 40.068 158.825C41.5313 161.015 42.3123 163.59 42.3123 166.224C42.3085 169.755 40.9042 173.14 38.4075 175.637C35.9109 178.134 32.5258 179.538 28.995 179.542ZM28.995 153.8C26.5367 153.8 24.1336 154.529 22.0896 155.895C20.0457 157.261 18.4527 159.202 17.5121 161.474C16.5716 163.745 16.3258 166.245 16.8057 168.656C17.2857 171.067 18.4698 173.281 20.2085 175.019C21.9471 176.758 24.1621 177.941 26.5734 178.42C28.9846 178.899 31.4837 178.652 33.7546 177.711C36.0255 176.769 37.9663 175.175 39.3313 173.131C40.6964 171.086 41.4245 168.683 41.4235 166.224C41.4197 162.929 40.1088 159.771 37.7787 157.441C35.4486 155.112 32.2896 153.803 28.995 153.8Z" fill="#231F20"/>
<path d="M233.442 179.542C230.808 179.542 228.234 178.761 226.044 177.298C223.854 175.834 222.147 173.754 221.139 171.321C220.131 168.887 219.867 166.209 220.381 163.626C220.895 161.043 222.163 158.67 224.026 156.807C225.888 154.944 228.261 153.676 230.844 153.162C233.428 152.648 236.105 152.912 238.539 153.92C240.972 154.928 243.052 156.635 244.515 158.825C245.979 161.015 246.76 163.59 246.76 166.224C246.757 169.756 245.353 173.141 242.856 175.639C240.359 178.136 236.973 179.54 233.442 179.542ZM233.442 153.8C230.984 153.8 228.581 154.529 226.537 155.895C224.493 157.261 222.9 159.202 221.959 161.474C221.019 163.745 220.773 166.245 221.253 168.656C221.733 171.067 222.917 173.281 224.656 175.019C226.394 176.758 228.609 177.941 231.021 178.42C233.432 178.899 235.931 178.652 238.202 177.711C240.473 176.769 242.414 175.175 243.779 173.131C245.144 171.086 245.872 168.683 245.871 166.224C245.867 162.929 244.556 159.771 242.226 157.441C239.896 155.112 236.737 153.803 233.442 153.8Z" fill="#231F20"/>
<path d="M171.344 179.542C168.71 179.542 166.135 178.761 163.945 177.298C161.755 175.834 160.048 173.754 159.04 171.321C158.032 168.887 157.768 166.209 158.282 163.626C158.796 161.043 160.064 158.67 161.927 156.807C163.789 154.944 166.162 153.676 168.746 153.162C171.329 152.648 174.007 152.912 176.44 153.92C178.873 154.928 180.953 156.635 182.417 158.825C183.88 161.015 184.661 163.59 184.661 166.224C184.657 169.755 183.253 173.14 180.756 175.637C178.26 178.134 174.874 179.538 171.344 179.542ZM171.344 153.8C168.885 153.8 166.482 154.529 164.438 155.895C162.394 157.261 160.801 159.202 159.861 161.474C158.92 163.745 158.674 166.245 159.154 168.656C159.634 171.067 160.818 173.281 162.557 175.019C164.296 176.758 166.511 177.941 168.922 178.42C171.333 178.899 173.832 178.652 176.103 177.711C178.374 176.769 180.315 175.175 181.68 173.131C183.045 171.086 183.773 168.683 183.772 166.224C183.768 162.929 182.457 159.771 180.127 157.441C177.797 155.112 174.638 153.803 171.344 153.8Z" fill="#231F20"/>
<path d="M138.962 179.542C136.328 179.542 133.753 178.761 131.563 177.298C129.373 175.834 127.666 173.754 126.658 171.321C125.65 168.887 125.387 166.209 125.9 163.626C126.414 161.043 127.683 158.67 129.545 156.807C131.408 154.944 133.78 153.676 136.364 153.162C138.947 152.648 141.625 152.912 144.058 153.92C146.492 154.928 148.571 156.635 150.035 158.825C151.498 161.015 152.279 163.59 152.279 166.224C152.275 169.755 150.871 173.14 148.374 175.637C145.878 178.134 142.493 179.538 138.962 179.542ZM138.962 153.8C136.504 153.802 134.102 154.533 132.059 155.9C130.016 157.267 128.425 159.209 127.486 161.481C126.547 163.752 126.302 166.251 126.783 168.662C127.265 171.072 128.449 173.286 130.189 175.023C131.928 176.76 134.143 177.942 136.554 178.421C138.964 178.899 141.463 178.651 143.733 177.71C146.004 176.768 147.944 175.174 149.309 173.13C150.673 171.085 151.401 168.682 151.4 166.224C151.396 162.928 150.084 159.768 147.752 157.438C145.42 155.108 142.258 153.8 138.962 153.8Z" fill="#231F20"/>
<path d="M28.9953 174.351C27.3855 174.352 25.8117 173.875 24.4729 172.981C23.1341 172.087 22.0905 170.816 21.4743 169.329C20.858 167.842 20.6968 166.205 21.0109 164.626C21.3251 163.048 22.1006 161.597 23.2392 160.459C24.3778 159.321 25.8284 158.547 27.4074 158.234C28.9863 157.92 30.6228 158.083 32.1095 158.7C33.5963 159.317 34.8665 160.361 35.7596 161.701C36.6526 163.04 37.1282 164.614 37.1263 166.224C37.1224 168.379 36.2644 170.445 34.7402 171.968C33.216 173.491 31.1501 174.348 28.9953 174.351ZM28.9953 158.972C27.5617 158.972 26.1604 159.397 24.9685 160.194C23.7766 160.99 22.8477 162.122 22.2994 163.447C21.751 164.772 21.6078 166.229 21.8878 167.635C22.1678 169.041 22.8585 170.332 23.8725 171.346C24.8865 172.359 26.1783 173.049 27.5844 173.328C28.9906 173.607 30.4479 173.463 31.772 172.914C33.0962 172.364 34.2277 171.435 35.0234 170.242C35.8191 169.05 36.2434 167.648 36.2424 166.214C36.2372 164.295 35.4716 162.456 34.1132 161.101C32.7548 159.745 30.9144 158.983 28.9953 158.982V158.972Z" fill="#231F20"/>
<path d="M138.961 174.351C137.352 174.351 135.779 173.874 134.441 172.979C133.103 172.085 132.06 170.815 131.445 169.328C130.829 167.841 130.668 166.205 130.982 164.627C131.295 163.049 132.07 161.599 133.208 160.461C134.346 159.323 135.796 158.548 137.374 158.234C138.952 157.921 140.588 158.082 142.075 158.697C143.561 159.313 144.832 160.356 145.726 161.694C146.62 163.032 147.097 164.605 147.097 166.214C147.096 168.372 146.238 170.441 144.713 171.966C143.187 173.492 141.118 174.349 138.961 174.351ZM138.961 158.972C137.528 158.972 136.126 159.397 134.934 160.194C133.742 160.99 132.814 162.122 132.265 163.447C131.717 164.772 131.574 166.229 131.854 167.635C132.134 169.041 132.824 170.332 133.838 171.346C134.852 172.359 136.144 173.049 137.55 173.328C138.956 173.607 140.414 173.463 141.738 172.914C143.062 172.364 144.193 171.435 144.989 170.242C145.785 169.05 146.209 167.648 146.208 166.214C146.203 164.295 145.437 162.456 144.079 161.101C142.721 159.745 140.88 158.983 138.961 158.982V158.972Z" fill="#231F20"/>
<path d="M171.344 174.351C169.735 174.351 168.162 173.874 166.824 172.979C165.486 172.085 164.443 170.815 163.827 169.328C163.212 167.841 163.05 166.205 163.364 164.627C163.678 163.049 164.453 161.599 165.591 160.461C166.729 159.323 168.178 158.548 169.757 158.234C171.335 157.921 172.971 158.082 174.457 158.697C175.944 159.313 177.215 160.356 178.109 161.694C179.003 163.032 179.48 164.605 179.48 166.214C179.479 168.372 178.621 170.441 177.095 171.966C175.57 173.492 173.501 174.349 171.344 174.351ZM171.344 158.972C169.91 158.972 168.509 159.397 167.317 160.194C166.125 160.99 165.196 162.122 164.648 163.447C164.1 164.772 163.956 166.229 164.236 167.635C164.516 169.041 165.207 170.332 166.221 171.346C167.235 172.359 168.527 173.049 169.933 173.328C171.339 173.607 172.796 173.463 174.121 172.914C175.445 172.364 176.576 171.435 177.372 170.242C178.168 169.05 178.592 167.648 178.591 166.214C178.587 164.295 177.822 162.455 176.463 161.099C175.105 159.743 173.263 158.982 171.344 158.982V158.972Z" fill="#231F20"/>
<path d="M233.443 174.351C231.833 174.351 230.26 173.874 228.922 172.979C227.585 172.085 226.542 170.815 225.926 169.328C225.31 167.841 225.149 166.205 225.463 164.627C225.777 163.049 226.552 161.599 227.69 160.461C228.827 159.323 230.277 158.548 231.855 158.234C233.434 157.921 235.069 158.082 236.556 158.697C238.043 159.313 239.313 160.356 240.207 161.694C241.101 163.032 241.578 164.605 241.578 166.214C241.577 168.372 240.72 170.441 239.194 171.966C237.669 173.492 235.6 174.349 233.443 174.351ZM233.443 158.972C232.009 158.972 230.608 159.397 229.416 160.194C228.224 160.99 227.295 162.122 226.747 163.447C226.198 164.772 226.055 166.229 226.335 167.635C226.615 169.041 227.306 170.332 228.32 171.346C229.334 172.359 230.626 173.049 232.032 173.328C233.438 173.607 234.895 173.463 236.219 172.914C237.543 172.364 238.675 171.435 239.471 170.242C240.266 169.05 240.691 167.648 240.69 166.214C240.686 164.295 239.921 162.455 238.562 161.099C237.203 159.743 235.362 158.982 233.443 158.982V158.972Z" fill="#231F20"/>
<path d="M249.231 166.722V166.155C249.222 161.963 247.548 157.945 244.577 154.987C241.606 152.029 237.581 150.372 233.389 150.381C229.196 150.39 225.179 152.064 222.221 155.035C219.263 158.006 217.606 162.031 217.615 166.224V166.668H215.149L215.281 166.121C215.34 165.893 215.371 165.658 215.373 165.423V156.393C215.373 155.607 215.062 154.854 214.507 154.298C213.952 153.742 213.199 153.43 212.414 153.428H192.558C191.772 153.428 191.018 153.741 190.462 154.297C189.906 154.852 189.593 155.606 189.593 156.393V165.423C189.596 165.658 189.627 165.893 189.686 166.121L189.823 166.668H187.157V166.224C187.158 162.134 185.573 158.203 182.737 155.257C179.9 152.311 176.032 150.58 171.945 150.427C167.858 150.274 163.871 151.711 160.822 154.437C157.773 157.162 155.899 160.963 155.595 165.042H154.711C154.406 160.963 152.532 157.162 149.483 154.437C146.434 151.711 142.447 150.274 138.36 150.427C134.274 150.58 130.405 152.311 127.569 155.257C124.732 158.203 123.148 162.134 123.149 166.224V166.668H44.8026V166.224C44.7256 162.098 43.0386 158.166 40.1019 155.267C37.1652 152.369 33.2115 150.733 29.0854 150.71C24.9593 150.687 20.9877 152.279 18.0189 155.144C15.0502 158.01 13.3195 161.923 13.1966 166.048V166.712L12.5813 166.448C12.0929 166.239 11.6766 165.891 11.3841 165.447C11.0916 165.004 10.9356 164.484 10.9355 163.953V148.208C10.9368 147.487 11.224 146.796 11.734 146.287C12.244 145.778 12.9351 145.492 13.6557 145.492H249.133C249.853 145.493 250.543 145.78 251.052 146.289C251.561 146.798 251.847 147.488 251.848 148.208V163.953C251.849 164.56 251.645 165.15 251.269 165.628C250.894 166.105 250.368 166.442 249.778 166.585L249.231 166.722ZM216.238 165.779H216.726C216.833 161.448 218.619 157.328 221.707 154.289C224.795 151.25 228.944 149.531 233.276 149.494C237.608 149.457 241.785 151.106 244.925 154.092C248.064 157.078 249.92 161.167 250.1 165.496C250.363 165.333 250.58 165.106 250.731 164.836C250.881 164.566 250.96 164.262 250.96 163.953V148.208C250.958 147.724 250.765 147.26 250.423 146.917C250.081 146.575 249.617 146.382 249.133 146.381H13.6459C13.161 146.381 12.696 146.573 12.3527 146.916C12.0094 147.258 11.8159 147.723 11.8146 148.208V163.953C11.8159 164.428 12.0015 164.885 12.3322 165.227C12.5985 160.939 14.5079 156.917 17.6632 154.001C20.8185 151.084 24.9768 149.496 29.273 149.567C33.5693 149.638 37.6728 151.363 40.7299 154.382C43.787 157.402 45.5623 161.484 45.6865 165.779H122.265C122.369 161.74 123.935 157.875 126.672 154.903C129.408 151.93 133.131 150.052 137.147 149.615C141.164 149.178 145.203 150.214 148.515 152.529C151.826 154.844 154.186 158.282 155.155 162.204C156.139 158.298 158.502 154.879 161.808 152.578C165.115 150.277 169.142 149.25 173.146 149.685C177.151 150.121 180.863 151.99 183.597 154.948C186.332 157.906 187.905 161.753 188.026 165.779H188.71C188.702 165.66 188.702 165.541 188.71 165.423V156.393C188.711 155.371 189.117 154.392 189.84 153.669C190.562 152.947 191.541 152.541 192.563 152.539H212.414C213.435 152.541 214.414 152.947 215.135 153.67C215.857 154.392 216.262 155.372 216.262 156.393V165.423C216.261 165.542 216.253 165.661 216.238 165.779Z" fill="#6B7280"/>
<path d="M213.147 169.642H191.816C190.991 169.64 190.201 169.312 189.618 168.729C189.035 168.146 188.706 167.356 188.705 166.531V156.021C188.705 155.196 189.033 154.405 189.616 153.821C190.2 153.238 190.991 152.91 191.816 152.91H213.147C213.972 152.91 214.763 153.238 215.347 153.821C215.93 154.405 216.258 155.196 216.258 156.021V166.536C216.256 167.36 215.928 168.15 215.345 168.732C214.762 169.315 213.971 169.642 213.147 169.642ZM191.816 153.799C191.524 153.799 191.235 153.856 190.966 153.968C190.696 154.08 190.451 154.243 190.245 154.45C190.038 154.656 189.875 154.901 189.763 155.171C189.651 155.44 189.594 155.729 189.594 156.021V166.536C189.594 167.125 189.828 167.69 190.245 168.107C190.661 168.524 191.227 168.758 191.816 168.758H213.147C213.439 168.758 213.729 168.701 213.999 168.59C214.269 168.479 214.514 168.315 214.721 168.109C214.928 167.902 215.092 167.657 215.204 167.387C215.316 167.117 215.374 166.828 215.374 166.536V156.021C215.374 155.729 215.316 155.44 215.205 155.171C215.093 154.901 214.929 154.656 214.723 154.45C214.517 154.243 214.272 154.08 214.002 153.968C213.733 153.856 213.444 153.799 213.152 153.799H191.816Z" fill="#6B7280"/>
<path d="M8.44959 155.09H7.66823C7.17735 155.09 6.70658 154.895 6.35948 154.548C6.01238 154.201 5.81738 153.73 5.81738 153.239V149.445C5.81738 148.954 6.01238 148.483 6.35948 148.136C6.70658 147.789 7.17735 147.594 7.66823 147.594H8.44959C8.94046 147.594 9.41123 147.789 9.75834 148.136C10.1054 148.483 10.3004 148.954 10.3004 149.445V153.259C10.2953 153.746 10.098 154.212 9.75148 154.555C9.40493 154.898 8.9371 155.09 8.44959 155.09ZM7.66823 148.468C7.40919 148.468 7.16076 148.571 6.9776 148.754C6.79443 148.937 6.69153 149.186 6.69153 149.445V153.259C6.69153 153.518 6.79443 153.766 6.9776 153.95C7.16076 154.133 7.40919 154.236 7.66823 154.236H8.44959C8.70863 154.236 8.95705 154.133 9.14022 153.95C9.32339 153.766 9.42629 153.518 9.42629 153.259V149.445C9.42629 149.186 9.32339 148.937 9.14022 148.754C8.95705 148.571 8.70863 148.468 8.44959 148.468H7.66823Z" fill="#231F20"/>
<path d="M247.082 122.581C247.082 122.581 244.435 122.556 244.151 123.972C243.868 125.389 249.255 136.944 249.255 136.944V124.353C249.031 123.786 248.743 123.247 248.395 122.747C248.048 122.415 247.082 122.581 247.082 122.581Z" fill="#F7EB32"/>
<mask id="path-26-inside-2_942_8950" fill="white">
<path d="M206.383 143.623C197.251 143.623 190.077 143.623 189.12 143.535C186.57 143.364 185.857 140.947 185.838 139.692V97.2812C185.838 96.0017 186.17 94.3022 187.108 93.3743C188.153 92.3291 190.121 92.1094 191.586 92.1094H210.231C212.619 92.1094 214.328 92.4024 215.31 92.9787C216.609 93.9064 217.697 95.098 218.504 96.4754L228.236 113.959C230.014 114.594 246.227 120.406 247.238 120.762C250.603 121.959 250.891 124.215 250.901 124.308V143.54H250.461C248.884 143.54 223.998 143.623 206.383 143.623ZM191.586 92.9933C189.779 92.9933 188.372 93.3596 187.733 93.9994C186.99 94.7417 186.727 96.2312 186.727 97.2812V139.672C186.727 139.779 186.815 142.475 189.168 142.636C191.806 142.812 244.586 142.636 250.002 142.636V124.352C250.002 124.352 249.738 122.594 246.93 121.597L227.773 114.736L227.611 114.682L227.533 114.535L217.717 96.9003C216.995 95.6743 216.032 94.6076 214.885 93.765C214.05 93.2766 212.443 93.0177 210.255 93.0177L191.586 92.9933Z"/>
</mask>
<path d="M189.12 143.535L189.303 141.543L189.278 141.541L189.253 141.539L189.12 143.535ZM185.838 139.692H183.838V139.707L183.838 139.723L185.838 139.692ZM187.108 93.3743L188.514 94.7958L188.522 94.7884L187.108 93.3743ZM215.31 92.9787L216.472 91.3511L216.399 91.2992L216.322 91.2539L215.31 92.9787ZM218.504 96.4754L220.251 95.5026L220.241 95.4836L220.23 95.4649L218.504 96.4754ZM228.236 113.959L226.489 114.932L226.855 115.59L227.564 115.843L228.236 113.959ZM247.238 120.762L247.908 118.878L247.903 118.876L247.238 120.762ZM250.901 124.308H252.901V124.203L252.89 124.098L250.901 124.308ZM250.901 143.54V145.54H252.901V143.54H250.901ZM250.461 143.54V141.54V143.54ZM191.586 92.9933L191.588 90.9933H191.586V92.9933ZM189.168 142.636L189.032 144.632L189.035 144.632L189.168 142.636ZM250.002 142.636V144.636H252.002V142.636H250.002ZM250.002 124.352H252.002V124.203L251.98 124.055L250.002 124.352ZM246.93 121.597L246.256 123.48L246.262 123.482L246.93 121.597ZM227.773 114.736L228.447 112.853L228.426 112.845L228.405 112.838L227.773 114.736ZM227.611 114.682L225.847 115.623L226.222 116.327L226.979 116.579L227.611 114.682ZM227.533 114.535L229.298 113.594L229.289 113.578L229.281 113.563L227.533 114.535ZM217.717 96.9003L219.465 95.9276L219.453 95.9062L219.441 95.8851L217.717 96.9003ZM214.885 93.765L216.069 92.1534L215.985 92.0914L215.895 92.0385L214.885 93.765ZM210.255 93.0177L210.253 95.0177H210.255V93.0177ZM206.383 141.623C201.815 141.623 197.743 141.623 194.693 141.612C191.568 141.601 189.667 141.577 189.303 141.543L188.937 145.527C189.529 145.581 191.694 145.601 194.678 145.612C197.737 145.623 201.818 145.623 206.383 145.623V141.623ZM189.253 141.539C188.702 141.503 188.425 141.271 188.216 140.944C187.956 140.537 187.843 140 187.838 139.66L183.838 139.723C183.852 140.638 184.105 141.938 184.844 143.096C185.634 144.334 186.988 145.397 188.986 145.531L189.253 141.539ZM187.838 139.692V97.2812H183.838V139.692H187.838ZM187.838 97.2812C187.838 96.7981 187.902 96.2414 188.044 95.7453C188.192 95.2291 188.379 94.9303 188.514 94.7958L185.701 91.9527C184.899 92.7461 184.451 93.761 184.198 94.6465C183.939 95.552 183.838 96.4848 183.838 97.2812H187.838ZM188.522 94.7884C188.667 94.6429 189.005 94.4447 189.638 94.2989C190.243 94.1595 190.937 94.1094 191.586 94.1094V90.1094C190.769 90.1094 189.747 90.1691 188.74 90.4009C187.762 90.6263 186.593 91.0605 185.693 91.9601L188.522 94.7884ZM191.586 94.1094H210.231V90.1094H191.586V94.1094ZM210.231 94.1094C212.574 94.1094 213.81 94.4176 214.297 94.7034L216.322 91.2539C214.846 90.3871 212.664 90.1094 210.231 90.1094V94.1094ZM214.147 94.6062C215.217 95.3702 216.113 96.3515 216.778 97.486L220.23 95.4649C219.281 93.8444 218 92.4425 216.472 91.3511L214.147 94.6062ZM216.756 97.4482L226.489 114.932L229.984 112.986L220.251 95.5026L216.756 97.4482ZM227.564 115.843C229.331 116.474 245.558 122.29 246.573 122.648L247.903 118.876C246.897 118.521 230.697 112.714 228.909 112.076L227.564 115.843ZM246.568 122.647C247.867 123.109 248.429 123.714 248.674 124.075C248.939 124.463 248.932 124.712 248.912 124.517L252.89 124.098C252.823 123.469 252.192 120.401 247.908 118.878L246.568 122.647ZM248.901 124.308V143.54H252.901V124.308H248.901ZM250.901 141.54H250.461V145.54H250.901V141.54ZM250.461 141.54C249.669 141.54 243.047 141.561 234.431 141.581C225.811 141.602 215.188 141.623 206.383 141.623V145.623C215.193 145.623 225.82 145.602 234.441 145.581C243.067 145.561 249.676 145.54 250.461 145.54V141.54ZM191.586 90.9933C190.558 90.9933 189.578 91.0964 188.717 91.3212C187.89 91.5369 186.992 91.9112 186.318 92.5852L189.147 95.4136C189.113 95.4478 189.238 95.319 189.726 95.1916C190.18 95.0734 190.807 94.9933 191.586 94.9933V90.9933ZM186.318 92.5852C185.59 93.3132 185.218 94.2599 185.019 95.0106C184.809 95.7977 184.727 96.608 184.727 97.2812H188.727C188.727 96.9045 188.776 96.445 188.884 96.0392C188.937 95.8401 188.997 95.6819 189.054 95.566C189.113 95.4474 189.152 95.4087 189.147 95.4136L186.318 92.5852ZM184.727 97.2812V139.672H188.727V97.2812H184.727ZM184.727 139.672C184.727 139.871 184.763 140.885 185.239 141.95C185.755 143.105 186.898 144.486 189.032 144.632L189.305 140.641C189.123 140.629 189.072 140.582 189.059 140.571C189.024 140.543 188.96 140.472 188.891 140.318C188.822 140.164 188.776 139.987 188.75 139.829C188.723 139.667 188.727 139.588 188.727 139.672H184.727ZM189.035 144.632C190.444 144.726 204.419 144.724 218.546 144.702C232.756 144.68 247.295 144.636 250.002 144.636V140.636C247.293 140.636 232.734 140.68 218.54 140.702C204.264 140.724 190.53 140.723 189.301 140.641L189.035 144.632ZM252.002 142.636V124.352H248.002V142.636H252.002ZM250.002 124.352C251.98 124.055 251.98 124.054 251.98 124.052C251.98 124.052 251.979 124.05 251.979 124.049C251.979 124.047 251.979 124.045 251.978 124.043C251.978 124.039 251.977 124.035 251.976 124.031C251.975 124.022 251.973 124.013 251.972 124.003C251.968 123.984 251.964 123.963 251.96 123.941C251.951 123.895 251.939 123.842 251.924 123.782C251.894 123.663 251.85 123.517 251.787 123.351C251.66 123.017 251.455 122.602 251.128 122.159C250.459 121.255 249.354 120.335 247.599 119.712L246.262 123.482C247.315 123.856 247.746 124.314 247.911 124.537C248.001 124.658 248.037 124.745 248.048 124.772C248.053 124.786 248.052 124.785 248.047 124.766C248.044 124.757 248.041 124.742 248.037 124.723C248.035 124.713 248.033 124.702 248.031 124.69C248.03 124.684 248.029 124.677 248.028 124.67C248.027 124.667 248.027 124.663 248.026 124.66C248.026 124.658 248.025 124.656 248.025 124.654C248.025 124.653 248.025 124.652 248.025 124.651C248.025 124.65 248.024 124.648 250.002 124.352ZM247.605 119.714L228.447 112.853L227.098 116.619L246.256 123.48L247.605 119.714ZM228.405 112.838L228.244 112.785L226.979 116.579L227.14 116.633L228.405 112.838ZM229.376 113.741L229.298 113.594L225.768 115.477L225.847 115.623L229.376 113.741ZM229.281 113.563L219.465 95.9276L215.97 97.873L225.786 115.508L229.281 113.563ZM219.441 95.8851C218.581 94.4259 217.434 93.1564 216.069 92.1534L213.701 95.3765C214.629 96.0589 215.409 96.9227 215.994 97.9155L219.441 95.8851ZM215.895 92.0385C215.169 91.6143 214.28 91.3764 213.396 91.2337C212.481 91.0861 211.42 91.0177 210.255 91.0177V95.0177C211.278 95.0177 212.115 95.0788 212.759 95.1827C213.434 95.2916 213.766 95.4273 213.875 95.4914L215.895 92.0385ZM210.258 91.0177L191.588 90.9933L191.583 94.9933L210.253 95.0177L210.258 91.0177Z" fill="#60A498" mask="url(#path-26-inside-2_942_8950)"/>
<mask id="path-28-inside-3_942_8950" fill="white">
<path d="M250.457 137.389C250.372 137.389 250.289 137.364 250.218 137.318C250.147 137.272 250.091 137.207 250.056 137.13C249.143 135.176 244.611 125.375 244.924 123.885C245.275 122.215 247.898 122.137 248.269 122.132C248.64 122.127 249.48 121.995 249.915 122.43C250.309 122.969 250.629 123.559 250.867 124.183C250.89 124.237 250.902 124.295 250.901 124.354V136.944C250.901 137.045 250.867 137.142 250.804 137.22C250.74 137.299 250.653 137.353 250.554 137.374C250.523 137.384 250.49 137.389 250.457 137.389ZM248.279 123.026C247.668 123.026 245.974 123.211 245.793 124.066C245.656 124.798 247.712 129.868 250.012 134.917V124.442C249.825 123.954 249.581 123.49 249.285 123.06C248.991 122.967 248.678 122.952 248.376 123.016C248.352 123.021 248.327 123.021 248.303 123.016L248.279 123.026Z"/>
</mask>
<path d="M250.457 137.389L250.456 139.389L250.46 139.389L250.457 137.389ZM250.056 137.13L251.879 136.308L251.874 136.295L251.868 136.283L250.056 137.13ZM244.924 123.885L242.967 123.473L242.966 123.474L244.924 123.885ZM249.915 122.43L251.529 121.249L251.438 121.125L251.329 121.016L249.915 122.43ZM250.867 124.183L248.998 124.894L249.015 124.939L249.034 124.983L250.867 124.183ZM250.901 124.354L248.901 124.321L248.901 124.337V124.354H250.901ZM250.901 136.944H248.901L248.901 136.945L250.901 136.944ZM250.554 137.374L250.132 135.419L250.051 135.437L249.971 135.461L250.554 137.374ZM248.279 123.026V125.026H248.664L249.022 124.882L248.279 123.026ZM245.793 124.066L243.836 123.652L243.831 123.675L243.827 123.699L245.793 124.066ZM250.012 134.917L248.192 135.747L252.012 134.917H250.012ZM250.012 124.442H252.012V124.072L251.88 123.726L250.012 124.442ZM249.285 123.06L250.932 121.925L250.541 121.359L249.885 121.152L249.285 123.06ZM248.376 123.016L247.963 121.059L247.96 121.06L248.376 123.016ZM248.303 123.016L248.72 121.06L248.125 120.933L247.56 121.159L248.303 123.016ZM250.458 135.389C250.758 135.389 251.052 135.476 251.304 135.639L249.133 138.998C249.527 139.253 249.986 139.388 250.456 139.389L250.458 135.389ZM251.304 135.639C251.556 135.802 251.756 136.034 251.879 136.308L248.233 137.952C248.426 138.38 248.738 138.743 249.133 138.998L251.304 135.639ZM251.868 136.283C251.415 135.313 250.067 132.403 248.875 129.56C248.277 128.134 247.732 126.757 247.358 125.663C247.171 125.112 247.04 124.671 246.966 124.351C246.929 124.191 246.914 124.094 246.909 124.048C246.901 123.974 246.924 124.089 246.881 124.296L242.966 123.474C242.884 123.867 242.906 124.234 242.931 124.468C242.958 124.73 243.01 124.998 243.068 125.252C243.186 125.761 243.365 126.346 243.572 126.954C243.989 128.177 244.576 129.652 245.186 131.107C246.41 134.025 247.785 136.993 248.244 137.977L251.868 136.283ZM246.881 124.297C246.857 124.41 246.787 124.473 246.796 124.465C246.832 124.437 246.946 124.367 247.176 124.296C247.645 124.152 248.164 124.133 248.295 124.132L248.242 120.132C248.002 120.135 247.025 120.158 246.002 120.472C245.07 120.758 243.377 121.524 242.967 123.473L246.881 124.297ZM248.295 124.132C248.387 124.131 248.478 124.126 248.537 124.123C248.609 124.119 248.655 124.116 248.712 124.113C248.821 124.108 248.888 124.108 248.935 124.112C248.984 124.115 248.96 124.119 248.892 124.096C248.818 124.071 248.66 124.004 248.5 123.844L251.329 121.016C250.59 120.276 249.661 120.151 249.201 120.12C248.937 120.103 248.698 120.11 248.531 120.117C248.45 120.121 248.367 120.126 248.32 120.128C248.293 120.13 248.274 120.131 248.259 120.131C248.244 120.132 248.24 120.132 248.242 120.132L248.295 124.132ZM248.3 123.611C248.589 124.005 248.824 124.437 248.998 124.894L252.736 123.472C252.435 122.68 252.029 121.933 251.529 121.249L248.3 123.611ZM249.034 124.983C248.943 124.774 248.897 124.548 248.901 124.321L252.901 124.387C252.907 124.042 252.838 123.7 252.7 123.383L249.034 124.983ZM248.901 124.354V136.944H252.901V124.354H248.901ZM248.901 136.945C248.901 136.588 249.023 136.242 249.247 135.965L252.36 138.476C252.71 138.042 252.901 137.501 252.901 136.944L248.901 136.945ZM249.247 135.965C249.471 135.687 249.783 135.494 250.132 135.419L250.977 139.329C251.522 139.211 252.01 138.91 252.36 138.476L249.247 135.965ZM249.971 135.461C250.127 135.413 250.29 135.389 250.453 135.389L250.46 139.389C250.69 139.388 250.918 139.354 251.138 139.287L249.971 135.461ZM248.279 121.026C247.838 121.026 247.063 121.086 246.312 121.306C245.937 121.416 245.457 121.597 245.014 121.912C244.561 122.233 244.018 122.791 243.836 123.652L247.75 124.48C247.658 124.913 247.394 125.128 247.329 125.174C247.274 125.213 247.29 125.188 247.437 125.144C247.569 125.106 247.733 125.074 247.905 125.053C248.077 125.031 248.214 125.026 248.279 125.026V121.026ZM243.827 123.699C243.727 124.236 243.844 124.765 243.886 124.961C243.953 125.267 244.052 125.611 244.165 125.968C244.395 126.687 244.729 127.594 245.128 128.606C245.929 130.638 247.033 133.201 248.192 135.747L251.832 134.088C250.691 131.584 249.617 129.088 248.849 127.139C248.464 126.161 248.166 125.348 247.977 124.753C247.881 124.452 247.823 124.241 247.795 124.11C247.742 123.868 247.825 124.078 247.759 124.433L243.827 123.699ZM252.012 134.917V124.442H248.012V134.917H252.012ZM251.88 123.726C251.636 123.09 251.318 122.486 250.932 121.925L247.638 124.194C247.844 124.494 248.014 124.818 248.145 125.158L251.88 123.726ZM249.885 121.152C249.263 120.956 248.601 120.924 247.963 121.059L248.79 124.973C248.755 124.98 248.718 124.978 248.684 124.968L249.885 121.152ZM247.96 121.06C248.21 121.006 248.469 121.006 248.72 121.06L247.886 124.972C248.185 125.036 248.494 125.036 248.793 124.972L247.96 121.06ZM247.56 121.159L247.535 121.169L249.022 124.882L249.046 124.873L247.56 121.159Z" fill="#60A498" mask="url(#path-28-inside-3_942_8950)"/>
<mask id="path-30-inside-4_942_8950" fill="white">
<path d="M227.93 114.768C226.765 114.777 225.6 114.712 224.443 114.573C223.676 114.4 222.988 113.975 222.49 113.367C222.114 112.742 214.012 99.082 213.157 97.1871C212.18 94.9796 213.23 94.3301 213.353 94.2568L213.45 94.2031H216.59V95.092H213.714C213.621 95.2385 213.445 95.6975 213.948 96.8159C214.779 98.662 223.071 112.644 223.203 112.864C223.574 113.278 224.063 113.567 224.604 113.694C225.708 113.821 226.819 113.882 227.93 113.875V114.768Z"/>
</mask>
<path d="M227.93 114.768L227.944 116.768L229.93 116.754V114.768H227.93ZM224.443 114.573L224.002 116.524L224.102 116.547L224.205 116.559L224.443 114.573ZM222.49 113.367L220.776 114.398L220.851 114.523L220.943 114.635L222.49 113.367ZM213.157 97.1871L211.328 97.9963L211.331 98.0028L211.334 98.0093L213.157 97.1871ZM213.353 94.2568L212.389 92.5044L212.356 92.5225L212.324 92.5419L213.353 94.2568ZM213.45 94.2031V92.2031H212.936L212.486 92.4507L213.45 94.2031ZM216.59 94.2031H218.59V92.2031H216.59V94.2031ZM216.59 95.092V97.092H218.59V95.092H216.59ZM213.714 95.092V93.092H212.613L212.024 94.0219L213.714 95.092ZM213.948 96.8159L215.772 95.9956L215.772 95.9956L213.948 96.8159ZM223.203 112.864L221.488 113.893L221.586 114.057L221.714 114.2L223.203 112.864ZM224.604 113.694L224.148 115.641L224.26 115.668L224.375 115.681L224.604 113.694ZM227.93 113.875H229.93V111.862L227.917 111.875L227.93 113.875ZM227.915 112.769C226.834 112.776 225.754 112.716 224.681 112.587L224.205 116.559C225.446 116.708 226.695 116.777 227.944 116.768L227.915 112.769ZM224.884 112.622C224.551 112.547 224.253 112.363 224.036 112.099L220.943 114.635C221.724 115.587 222.8 116.252 224.002 116.524L224.884 112.622ZM224.203 112.336C224.022 112.034 221.907 108.471 219.73 104.744C217.509 100.944 215.351 97.1875 214.98 96.3648L211.334 98.0093C211.818 99.0815 214.138 103.103 216.276 106.762C218.457 110.495 220.581 114.075 220.776 114.398L224.203 112.336ZM214.986 96.3778C214.631 95.5741 214.793 95.4018 214.732 95.5788C214.706 95.6531 214.656 95.7359 214.584 95.8122C214.512 95.8879 214.433 95.9411 214.382 95.9718L212.324 92.5419C212.067 92.6955 211.327 93.1907 210.954 94.2645C210.581 95.3365 210.707 96.5926 211.328 97.9963L214.986 96.3778ZM214.316 96.0093L214.414 95.9556L212.486 92.4507L212.389 92.5044L214.316 96.0093ZM213.45 96.2031H216.59V92.2031H213.45V96.2031ZM214.59 94.2031V95.092H218.59V94.2031H214.59ZM216.59 93.092H213.714V97.092H216.59V93.092ZM212.024 94.0219C211.428 94.963 211.478 96.1993 212.124 97.6363L215.772 95.9956C215.593 95.5973 215.605 95.4681 215.607 95.5358C215.608 95.575 215.605 95.662 215.573 95.7821C215.54 95.905 215.484 96.0348 215.404 96.162L212.024 94.0219ZM212.124 97.6362C212.596 98.6856 214.96 102.779 217.11 106.459C219.306 110.215 221.416 113.773 221.488 113.893L224.918 111.835C224.918 111.835 224.915 111.831 224.909 111.821C224.903 111.811 224.896 111.798 224.886 111.782C224.867 111.75 224.84 111.704 224.806 111.647C224.738 111.533 224.642 111.371 224.522 111.168C224.282 110.762 223.944 110.191 223.54 109.507C222.732 108.138 221.659 106.314 220.564 104.441C218.328 100.613 216.131 96.7923 215.772 95.9956L212.124 97.6362ZM221.714 114.2C222.359 114.918 223.208 115.421 224.148 115.641L225.06 111.747C224.918 111.713 224.789 111.637 224.691 111.528L221.714 114.2ZM224.375 115.681C225.559 115.817 226.75 115.882 227.942 115.875L227.917 111.875C226.887 111.881 225.857 111.825 224.833 111.707L224.375 115.681ZM225.93 113.875V114.768H229.93V113.875H225.93Z" fill="#60A498" mask="url(#path-30-inside-4_942_8950)"/>
<path d="M214.651 114.318H195.181C194.579 114.317 194.002 114.077 193.577 113.652C193.151 113.226 192.911 112.649 192.91 112.047V96.9076C192.913 96.3062 193.153 95.73 193.578 95.3047C194.003 94.8794 194.58 94.6393 195.181 94.6367H205.568C206.293 94.6609 206.996 94.8861 207.6 95.2871C208.203 95.6882 208.684 96.2493 208.987 96.9076L216.937 112.047C216.936 112.346 216.877 112.643 216.761 112.919C216.646 113.195 216.478 113.446 216.265 113.657C216.053 113.868 215.801 114.035 215.524 114.148C215.247 114.262 214.951 114.319 214.651 114.318Z" fill="white"/>
<path d="M190.229 110.227H188.896C188.618 110.227 188.393 110.452 188.393 110.73V132.443C188.393 132.72 188.618 132.946 188.896 132.946H190.229C190.507 132.946 190.732 132.72 190.732 132.443V110.73C190.732 110.452 190.507 110.227 190.229 110.227Z" fill="#E4E5E6"/>
<mask id="path-34-inside-5_942_8950" fill="white">
<path d="M215.98 114.766H196.509C195.789 114.766 195.098 114.479 194.589 113.97C194.08 113.461 193.794 112.77 193.794 112.05V96.9107C193.795 96.1909 194.082 95.501 194.591 94.992C195.1 94.4831 195.789 94.1966 196.509 94.1953H206.891C207.697 94.217 208.481 94.4642 209.153 94.9088C209.826 95.3534 210.36 95.9775 210.696 96.7104L218.695 111.933V112.04C218.696 112.398 218.627 112.752 218.491 113.083C218.355 113.413 218.155 113.714 217.903 113.967C217.651 114.22 217.351 114.421 217.021 114.558C216.691 114.695 216.337 114.766 215.98 114.766ZM196.509 95.0939C196.025 95.0939 195.56 95.2863 195.218 95.6289C194.875 95.9714 194.683 96.436 194.683 96.9204V112.06C194.682 112.3 194.729 112.538 194.82 112.76C194.912 112.982 195.047 113.183 195.216 113.353C195.386 113.523 195.588 113.657 195.809 113.749C196.031 113.84 196.269 113.887 196.509 113.886H215.98C216.446 113.886 216.894 113.708 217.233 113.389C217.573 113.069 217.778 112.633 217.806 112.167L209.909 97.1402C209.645 96.554 209.223 96.0529 208.69 95.6932C208.157 95.3335 207.534 95.1294 206.891 95.1037L196.509 95.0939Z"/>
</mask>
<path d="M215.98 114.766L215.98 112.766H215.98V114.766ZM196.509 114.766V112.766V114.766ZM193.794 96.9107L191.794 96.9071V96.9107H193.794ZM196.509 94.1953V92.1953L196.506 92.1953L196.509 94.1953ZM206.891 94.1953L206.945 92.196L206.918 92.1953H206.891V94.1953ZM210.696 96.7104L208.877 97.5432L208.9 97.5926L208.925 97.6408L210.696 96.7104ZM218.695 111.933H220.695V111.44L220.465 111.003L218.695 111.933ZM218.695 112.04H216.695L216.695 112.048L218.695 112.04ZM196.509 95.0939L196.511 93.0939H196.509V95.0939ZM194.683 96.9204H196.683H194.683ZM194.683 112.06L196.683 112.065V112.06H194.683ZM196.509 113.886V111.886L196.504 111.886L196.509 113.886ZM215.98 113.886V115.886H215.981L215.98 113.886ZM217.806 112.167L219.802 112.29L219.837 111.732L219.577 111.237L217.806 112.167ZM209.909 97.1402L208.086 97.9623L208.111 98.0172L208.139 98.0705L209.909 97.1402ZM206.891 95.1037L206.971 93.1053L206.932 93.1037L206.893 93.1037L206.891 95.1037ZM215.98 112.766H196.509V116.766H215.98V112.766ZM196.509 112.766C196.32 112.766 196.138 112.69 196.003 112.556L193.175 115.384C194.059 116.269 195.259 116.766 196.509 116.766V112.766ZM196.003 112.556C195.869 112.422 195.794 112.24 195.794 112.05H191.794C191.794 113.301 192.291 114.5 193.175 115.384L196.003 112.556ZM195.794 112.05V96.9107H191.794V112.05H195.794ZM195.794 96.9142C195.794 96.7237 195.87 96.541 196.005 96.4062L193.176 93.5779C192.293 94.461 191.796 95.6582 191.794 96.9071L195.794 96.9142ZM196.005 96.4062C196.14 96.2715 196.322 96.1957 196.513 96.1953L196.506 92.1953C195.257 92.1976 194.06 92.6947 193.176 93.5779L196.005 96.4062ZM196.509 96.1953H206.891V92.1953H196.509V96.1953ZM206.838 96.1946C207.27 96.2062 207.69 96.3388 208.05 96.5771L210.256 93.2404C209.272 92.5897 208.125 92.2279 206.945 92.196L206.838 96.1946ZM208.05 96.5771C208.411 96.8155 208.697 97.1502 208.877 97.5432L212.514 95.8777C212.023 94.8048 211.241 93.8912 210.256 93.2404L208.05 96.5771ZM208.925 97.6408L216.924 112.863L220.465 111.003L212.466 95.7801L208.925 97.6408ZM216.695 111.933V112.04H220.695V111.933H216.695ZM216.695 112.048C216.695 112.142 216.677 112.235 216.641 112.322L220.341 113.843C220.577 113.269 220.697 112.654 220.695 112.033L216.695 112.048ZM216.641 112.322C216.605 112.409 216.553 112.488 216.486 112.555L219.32 115.378C219.758 114.939 220.105 114.417 220.341 113.843L216.641 112.322ZM216.486 112.555C216.42 112.622 216.341 112.675 216.254 112.711L217.788 116.405C218.361 116.167 218.882 115.818 219.32 115.378L216.486 112.555ZM216.254 112.711C216.167 112.747 216.074 112.766 215.98 112.766L215.98 116.766C216.6 116.766 217.215 116.643 217.788 116.405L216.254 112.711ZM196.509 93.0939C195.494 93.0939 194.521 93.4971 193.803 94.2147L196.632 97.0431C196.599 97.0756 196.555 97.0939 196.509 97.0939V93.0939ZM193.803 94.2147C193.086 94.9323 192.683 95.9056 192.683 96.9204H196.683C196.683 96.9664 196.664 97.0105 196.632 97.0431L193.803 94.2147ZM192.683 96.9204V112.06H196.683V96.9204H192.683ZM192.683 112.055C192.681 112.558 192.78 113.057 192.972 113.523L196.669 111.997C196.678 112.019 196.683 112.042 196.683 112.065L192.683 112.055ZM192.972 113.523C193.164 113.988 193.446 114.411 193.802 114.767L196.63 111.939C196.647 111.955 196.66 111.975 196.669 111.997L192.972 113.523ZM193.802 114.767C194.158 115.123 194.581 115.405 195.047 115.598L196.572 111.9C196.594 111.909 196.614 111.922 196.63 111.939L193.802 114.767ZM195.047 115.598C195.512 115.79 196.011 115.888 196.515 115.886L196.504 111.886C196.527 111.886 196.551 111.891 196.572 111.9L195.047 115.598ZM196.509 115.886H215.98V111.886H196.509V115.886ZM215.981 115.886C216.956 115.886 217.894 115.513 218.604 114.845L215.863 111.932C215.894 111.903 215.935 111.887 215.978 111.886L215.981 115.886ZM218.604 114.845C219.314 114.177 219.743 113.263 219.802 112.29L215.81 112.045C215.813 112.002 215.831 111.962 215.863 111.932L218.604 114.845ZM219.577 111.237L211.68 96.2099L208.139 98.0705L216.036 113.098L219.577 111.237ZM211.733 96.3181C211.316 95.3933 210.649 94.6028 209.808 94.0354L207.571 97.3511C207.796 97.503 207.975 97.7146 208.086 97.9623L211.733 96.3181ZM209.808 94.0354C208.968 93.4679 207.985 93.1458 206.971 93.1053L206.812 97.1021C207.083 97.1129 207.346 97.1992 207.571 97.3511L209.808 94.0354ZM206.893 93.1037L196.511 93.0939L196.507 97.0939L206.89 97.1037L206.893 93.1037Z" fill="#60A498" mask="url(#path-34-inside-5_942_8950)"/>
<mask id="path-36-inside-6_942_8950" fill="white">
<path d="M190.575 133.389H190.087C189.908 133.389 189.731 133.354 189.566 133.285C189.4 133.217 189.25 133.117 189.124 132.99C188.997 132.864 188.897 132.713 188.828 132.548C188.76 132.383 188.725 132.206 188.725 132.027V111.144C188.725 110.782 188.868 110.436 189.124 110.18C189.379 109.925 189.726 109.781 190.087 109.781H190.575C190.754 109.781 190.931 109.817 191.096 109.885C191.261 109.954 191.411 110.054 191.537 110.181C191.663 110.307 191.763 110.457 191.831 110.623C191.899 110.788 191.934 110.965 191.933 111.144V132.027C191.934 132.205 191.899 132.382 191.831 132.548C191.763 132.713 191.663 132.863 191.537 132.99C191.411 133.116 191.261 133.217 191.096 133.285C190.931 133.354 190.754 133.389 190.575 133.389ZM190.087 110.67C189.958 110.67 189.833 110.722 189.742 110.813C189.65 110.905 189.599 111.029 189.599 111.158V132.041C189.599 132.171 189.65 132.295 189.742 132.387C189.833 132.478 189.958 132.53 190.087 132.53H190.575C190.705 132.53 190.829 132.478 190.921 132.387C191.012 132.295 191.064 132.171 191.064 132.041V111.144C191.064 111.014 191.012 110.89 190.921 110.798C190.829 110.707 190.705 110.655 190.575 110.655L190.087 110.67Z"/>
</mask>
<path d="M190.575 133.389L190.575 131.389H190.575V133.389ZM190.575 109.781V111.781H190.575L190.575 109.781ZM191.933 111.144L189.933 111.137V111.144H191.933ZM191.933 132.027H189.933L189.933 132.034L191.933 132.027ZM190.087 110.67V112.67H190.117L190.147 112.669L190.087 110.67ZM190.575 110.655V108.655H190.545L190.515 108.656L190.575 110.655ZM190.575 131.389H190.087V135.389H190.575V131.389ZM190.087 131.389C190.171 131.389 190.254 131.406 190.331 131.438L188.8 135.133C189.208 135.302 189.646 135.389 190.087 135.389V131.389ZM190.331 131.438C190.408 131.47 190.479 131.517 190.538 131.576L187.709 134.404C188.022 134.717 188.392 134.964 188.8 135.133L190.331 131.438ZM190.538 131.576C190.597 131.635 190.644 131.705 190.676 131.783L186.981 133.313C187.15 133.721 187.397 134.092 187.709 134.404L190.538 131.576ZM190.676 131.783C190.708 131.86 190.725 131.943 190.725 132.027H186.725C186.725 132.468 186.812 132.905 186.981 133.313L190.676 131.783ZM190.725 132.027V111.144H186.725V132.027H190.725ZM190.725 111.144C190.725 111.313 190.657 111.475 190.538 111.595L187.709 108.766C187.079 109.397 186.725 110.252 186.725 111.144H190.725ZM190.538 111.595C190.418 111.714 190.256 111.781 190.087 111.781V107.781C189.195 107.781 188.34 108.136 187.709 108.766L190.538 111.595ZM190.087 111.781H190.575V107.781H190.087V111.781ZM190.575 111.781C190.491 111.781 190.407 111.765 190.329 111.732L191.863 108.038C191.455 107.869 191.017 107.781 190.575 107.781L190.575 111.781ZM190.329 111.732C190.251 111.7 190.18 111.652 190.12 111.592L192.954 108.769C192.642 108.456 192.271 108.207 191.863 108.038L190.329 111.732ZM190.12 111.592C190.061 111.532 190.013 111.461 189.981 111.383L193.681 109.862C193.513 109.454 193.266 109.082 192.954 108.769L190.12 111.592ZM189.981 111.383C189.949 111.305 189.933 111.221 189.933 111.137L193.933 111.151C193.935 110.709 193.849 110.271 193.681 109.862L189.981 111.383ZM189.933 111.144V132.027H193.933V111.144H189.933ZM189.933 132.034C189.933 131.949 189.949 131.865 189.981 131.787L193.681 133.308C193.849 132.899 193.935 132.461 193.933 132.019L189.933 132.034ZM189.981 131.787C190.013 131.709 190.061 131.638 190.12 131.578L192.954 134.401C193.266 134.088 193.513 133.717 193.681 133.308L189.981 131.787ZM190.12 131.578C190.18 131.518 190.251 131.471 190.329 131.438L191.863 135.132C192.271 134.963 192.642 134.715 192.954 134.401L190.12 131.578ZM190.329 131.438C190.407 131.406 190.491 131.389 190.575 131.389L190.575 135.389C191.017 135.389 191.455 135.302 191.863 135.132L190.329 131.438ZM190.087 108.67C189.427 108.67 188.794 108.932 188.328 109.399L191.156 112.227C190.873 112.511 190.488 112.67 190.087 112.67V108.67ZM188.328 109.399C187.861 109.866 187.599 110.499 187.599 111.158H191.599C191.599 111.559 191.44 111.944 191.156 112.227L188.328 109.399ZM187.599 111.158V132.041H191.599V111.158H187.599ZM187.599 132.041C187.599 132.701 187.861 133.334 188.328 133.801L191.156 130.972C191.44 131.256 191.599 131.641 191.599 132.041H187.599ZM188.328 133.801C188.794 134.268 189.427 134.53 190.087 134.53V130.53C190.488 130.53 190.872 130.689 191.156 130.972L188.328 133.801ZM190.087 134.53H190.575V130.53H190.087V134.53ZM190.575 134.53C191.235 134.53 191.868 134.267 192.335 133.801L189.507 130.972C189.79 130.689 190.175 130.53 190.575 130.53V134.53ZM192.335 133.801C192.802 133.334 193.064 132.701 193.064 132.041H189.064C189.064 131.64 189.223 131.256 189.507 130.972L192.335 133.801ZM193.064 132.041V111.144H189.064V132.041H193.064ZM193.064 111.144C193.064 110.484 192.802 109.851 192.335 109.384L189.507 112.213C189.223 111.929 189.064 111.545 189.064 111.144H193.064ZM192.335 109.384C191.868 108.918 191.235 108.655 190.575 108.655V112.655C190.174 112.655 189.79 112.496 189.507 112.213L192.335 109.384ZM190.515 108.656L190.027 108.671L190.147 112.669L190.635 112.655L190.515 108.656Z" fill="#60A498" mask="url(#path-36-inside-6_942_8950)"/>
<path d="M234.491 127.281L234.106 126.504L234.491 127.281Z" stroke="#60A498" stroke-width="2"/>
<mask id="path-39-inside-7_942_8950" fill="white">
<path d="M223.754 125.886H222.895C222.69 125.886 222.548 125.847 222.011 125.012L220.087 122.037C219.652 121.363 219.598 121.153 219.711 120.914L219.838 120.68H220.961C221.171 120.68 221.313 120.719 221.85 121.554L223.774 124.533C224.208 125.207 224.262 125.417 224.15 125.656L224.023 125.886H223.754Z"/>
</mask>
<path d="M222.011 125.012L223.693 123.93L223.69 123.925L222.011 125.012ZM220.087 122.037L218.406 123.121L218.408 123.124L220.087 122.037ZM219.711 120.914L217.952 119.962L217.925 120.012L217.9 120.064L219.711 120.914ZM219.838 120.68V118.68H218.647L218.079 119.727L219.838 120.68ZM221.85 121.554L220.168 122.636L220.17 122.639L221.85 121.554ZM223.774 124.533L225.455 123.449L225.454 123.448L223.774 124.533ZM224.15 125.656L225.9 126.624L225.932 126.566L225.96 126.506L224.15 125.656ZM224.023 125.886V127.886H225.202L225.773 126.854L224.023 125.886ZM223.754 123.886H222.895V127.886H223.754V123.886ZM222.895 123.886C222.9 123.886 223.113 123.882 223.374 123.968C223.644 124.057 223.822 124.192 223.907 124.268C223.978 124.331 223.992 124.36 223.939 124.29C223.891 124.227 223.812 124.115 223.693 123.93L220.329 126.094C220.594 126.506 220.892 126.939 221.247 127.255C221.461 127.446 221.747 127.643 222.118 127.765C222.479 127.885 222.787 127.886 222.895 127.886V123.886ZM223.69 123.925L221.766 120.951L218.408 123.124L220.332 126.098L223.69 123.925ZM221.768 120.953C221.671 120.804 221.616 120.711 221.585 120.654C221.552 120.593 221.571 120.618 221.597 120.699C221.628 120.794 221.672 120.978 221.657 121.22C221.642 121.468 221.571 121.658 221.521 121.764L217.9 120.064C217.794 120.29 217.688 120.596 217.665 120.972C217.642 121.341 217.706 121.665 217.79 121.926C217.934 122.372 218.194 122.793 218.406 123.121L221.768 120.953ZM221.469 121.867L221.596 121.632L218.079 119.727L217.952 119.962L221.469 121.867ZM219.838 122.68H220.961V118.68H219.838V122.68ZM220.961 122.68C220.96 122.68 220.75 122.684 220.492 122.6C220.223 122.512 220.044 122.378 219.956 122.3C219.884 122.236 219.869 122.206 219.922 122.276C219.97 122.339 220.048 122.45 220.168 122.636L223.532 120.472C223.267 120.061 222.968 119.625 222.609 119.307C222.393 119.115 222.105 118.919 221.733 118.798C221.373 118.68 221.067 118.68 220.961 118.68V122.68ZM220.17 122.639L222.094 125.618L225.454 123.448L223.53 120.469L220.17 122.639ZM222.093 125.617C222.189 125.766 222.245 125.859 222.275 125.916C222.309 125.977 222.29 125.952 222.263 125.871C222.233 125.777 222.188 125.592 222.203 125.35C222.219 125.102 222.29 124.912 222.339 124.806L225.96 126.506C226.066 126.28 226.172 125.975 226.196 125.599C226.219 125.229 226.155 124.905 226.071 124.644C225.927 124.198 225.666 123.777 225.455 123.449L222.093 125.617ZM222.4 124.688L222.273 124.918L225.773 126.854L225.9 126.624L222.4 124.688ZM224.023 123.886H223.754V127.886H224.023V123.886Z" fill="#60A498" mask="url(#path-39-inside-7_942_8950)"/>
<mask id="path-41-inside-8_942_8950" fill="white">
<path d="M227.582 125.886H226.728C226.523 125.886 226.376 125.847 225.839 125.012L223.915 122.037C223.48 121.359 223.427 121.149 223.539 120.914L223.666 120.68H224.789C224.999 120.68 225.141 120.719 225.678 121.554L227.582 124.533C228.022 125.217 228.071 125.417 227.958 125.656L227.831 125.886H227.582Z"/>
</mask>
<path d="M225.839 125.012L227.521 123.93L227.518 123.925L225.839 125.012ZM223.915 122.037L222.231 123.116L222.236 123.124L223.915 122.037ZM223.539 120.914L221.78 119.962L221.757 120.005L221.735 120.05L223.539 120.914ZM223.666 120.68V118.68H222.475L221.907 119.727L223.666 120.68ZM225.678 121.554L227.363 120.477L227.36 120.472L225.678 121.554ZM227.582 124.533L225.897 125.61L225.9 125.614L227.582 124.533ZM227.958 125.656L229.709 126.624L229.741 126.566L229.769 126.506L227.958 125.656ZM227.831 125.886V127.886H229.011L229.582 126.854L227.831 125.886ZM227.582 123.886H226.728V127.886H227.582V123.886ZM226.728 123.886C226.734 123.886 226.944 123.882 227.201 123.966C227.467 124.053 227.645 124.186 227.731 124.262C227.803 124.325 227.817 124.355 227.765 124.287C227.718 124.224 227.64 124.114 227.521 123.93L224.157 126.094C224.424 126.509 224.725 126.944 225.085 127.262C225.301 127.452 225.587 127.646 225.955 127.767C226.314 127.885 226.619 127.886 226.728 127.886V123.886ZM227.518 123.925L225.594 120.951L222.236 123.124L224.16 126.098L227.518 123.925ZM225.599 120.959C225.503 120.808 225.447 120.713 225.415 120.655C225.381 120.593 225.4 120.616 225.425 120.696C225.455 120.788 225.501 120.973 225.485 121.218C225.469 121.472 225.396 121.667 225.343 121.778L221.735 120.05C221.626 120.279 221.517 120.588 221.493 120.968C221.47 121.339 221.535 121.664 221.618 121.923C221.761 122.365 222.019 122.786 222.231 123.116L225.599 120.959ZM225.297 121.867L225.424 121.632L221.907 119.727L221.78 119.962L225.297 121.867ZM223.666 122.68H224.789V118.68H223.666V122.68ZM224.789 122.68C224.788 122.68 224.578 122.684 224.32 122.6C224.051 122.512 223.872 122.378 223.784 122.3C223.712 122.236 223.697 122.206 223.75 122.276C223.798 122.339 223.876 122.45 223.996 122.636L227.36 120.472C227.095 120.061 226.796 119.625 226.437 119.307C226.221 119.115 225.933 118.919 225.562 118.798C225.201 118.68 224.895 118.68 224.789 118.68V122.68ZM223.993 122.631L225.897 125.61L229.267 123.456L227.363 120.477L223.993 122.631ZM225.9 125.614C225.998 125.767 226.055 125.862 226.086 125.92C226.12 125.982 226.1 125.956 226.073 125.873C226.041 125.774 225.997 125.585 226.014 125.338C226.031 125.088 226.104 124.901 226.148 124.806L229.769 126.506C229.869 126.292 229.978 125.99 230.004 125.613C230.03 125.241 229.966 124.914 229.882 124.65C229.738 124.204 229.476 123.78 229.265 123.451L225.9 125.614ZM226.208 124.688L226.081 124.918L229.582 126.854L229.709 126.624L226.208 124.688ZM227.831 123.886H227.582V127.886H227.831V123.886Z" fill="#60A498" mask="url(#path-41-inside-8_942_8950)"/>
<mask id="path-43-inside-9_942_8950" fill="white">
<path d="M231.246 125.886H230.386C230.181 125.886 230.039 125.847 229.502 125.012L227.583 122.037C227.148 121.363 227.095 121.153 227.207 120.914L227.334 120.68H228.457C228.662 120.68 228.804 120.719 229.346 121.554L231.27 124.528C231.709 125.212 231.758 125.412 231.646 125.651L231.519 125.881L231.246 125.886Z"/>
</mask>
<path d="M231.246 125.886V127.886H231.263L231.281 127.885L231.246 125.886ZM229.502 125.012L231.184 123.93L231.183 123.927L229.502 125.012ZM227.583 122.037L225.902 123.121L225.902 123.122L227.583 122.037ZM227.207 120.914L225.448 119.962L225.421 120.012L225.396 120.064L227.207 120.914ZM227.334 120.68V118.68H226.143L225.575 119.727L227.334 120.68ZM229.346 121.554L231.025 120.468L231.023 120.465L229.346 121.554ZM231.27 124.528L232.952 123.447L232.949 123.442L231.27 124.528ZM231.646 125.651L233.396 126.619L233.428 126.561L233.456 126.501L231.646 125.651ZM231.519 125.881L231.555 127.881L232.71 127.86L233.269 126.849L231.519 125.881ZM231.246 123.886H230.386V127.886H231.246V123.886ZM230.386 123.886C230.391 123.886 230.604 123.882 230.865 123.968C231.135 124.057 231.313 124.192 231.399 124.268C231.47 124.331 231.484 124.36 231.43 124.29C231.382 124.227 231.304 124.115 231.184 123.93L227.82 126.094C228.085 126.506 228.383 126.939 228.738 127.255C228.952 127.446 229.238 127.643 229.609 127.765C229.971 127.885 230.278 127.886 230.386 127.886V123.886ZM231.183 123.927L229.263 120.953L225.902 123.122L227.822 126.096L231.183 123.927ZM229.264 120.953C229.167 120.804 229.112 120.711 229.081 120.654C229.048 120.593 229.067 120.618 229.093 120.699C229.124 120.794 229.168 120.978 229.153 121.22C229.138 121.468 229.067 121.658 229.017 121.764L225.396 120.064C225.291 120.29 225.184 120.596 225.161 120.972C225.138 121.341 225.202 121.665 225.286 121.926C225.43 122.372 225.691 122.793 225.902 123.121L229.264 120.953ZM228.965 121.867L229.092 121.632L225.575 119.727L225.448 119.962L228.965 121.867ZM227.334 122.68H228.457V118.68H227.334V122.68ZM228.457 122.68C228.451 122.68 228.239 122.684 227.979 122.598C227.71 122.509 227.533 122.375 227.448 122.3C227.378 122.238 227.365 122.21 227.419 122.281C227.468 122.345 227.547 122.457 227.668 122.643L231.023 120.465C230.756 120.053 230.456 119.621 230.102 119.307C229.888 119.118 229.603 118.922 229.234 118.8C228.872 118.68 228.565 118.68 228.457 118.68V122.68ZM227.667 122.64L229.591 125.614L232.949 123.442L231.025 120.468L227.667 122.64ZM229.588 125.61C229.686 125.763 229.742 125.857 229.774 125.915C229.808 125.978 229.788 125.952 229.761 125.868C229.729 125.769 229.684 125.58 229.701 125.334C229.718 125.083 229.791 124.896 229.835 124.802L233.456 126.501C233.557 126.287 233.666 125.985 233.692 125.608C233.717 125.236 233.654 124.909 233.569 124.645C233.426 124.199 233.164 123.775 232.952 123.447L229.588 125.61ZM229.896 124.683L229.769 124.913L233.269 126.849L233.396 126.619L229.896 124.683ZM231.483 123.881L231.21 123.886L231.281 127.885L231.555 127.881L231.483 123.881Z" fill="#60A498" mask="url(#path-43-inside-9_942_8950)"/>
<path d="M183.632 143.537H177.415V73.1719H183.632V143.537ZM178.328 142.648H182.723V74.0607H178.328V142.648Z" fill="#6B7280"/>
<path d="M183.529 74.063H177.459V73.6186C177.459 72.2989 177.098 71.0042 176.416 69.8748C175.733 68.7454 174.755 67.8242 173.586 67.2112L173.347 67.0842V60.6719L173.913 60.833C176.679 61.6441 179.109 63.3268 180.842 65.6306C182.575 67.9343 183.517 70.736 183.529 73.6186V74.063ZM178.333 73.1742H182.655C182.554 70.6643 181.699 68.2431 180.201 66.2263C178.704 64.2096 176.633 62.6909 174.26 61.8684V66.5519C175.439 67.2264 176.43 68.1862 177.141 69.3433C177.853 70.5004 178.263 71.8176 178.333 73.1742Z" fill="#6B7280"/>
<path d="M201.696 131.883H193.399C193.129 131.883 192.91 132.101 192.91 132.371V136.776C192.91 137.046 193.129 137.265 193.399 137.265H201.696C201.965 137.265 202.184 137.046 202.184 136.776V132.371C202.184 132.101 201.965 131.883 201.696 131.883Z" fill="#E4E5E6"/>
<path d="M233.442 170.267C232.642 170.267 231.86 170.03 231.196 169.586C230.531 169.141 230.012 168.51 229.706 167.771C229.4 167.032 229.32 166.219 229.476 165.435C229.632 164.65 230.017 163.93 230.583 163.364C231.148 162.799 231.869 162.413 232.653 162.257C233.437 162.101 234.251 162.181 234.989 162.487C235.728 162.794 236.36 163.312 236.804 163.977C237.248 164.642 237.486 165.424 237.486 166.223C237.486 167.296 237.06 168.324 236.301 169.083C235.543 169.841 234.514 170.267 233.442 170.267ZM233.442 163.073C232.818 163.073 232.208 163.259 231.689 163.605C231.17 163.952 230.766 164.445 230.527 165.022C230.288 165.599 230.226 166.233 230.348 166.846C230.47 167.458 230.771 168.02 231.213 168.461C231.655 168.902 232.217 169.202 232.83 169.323C233.442 169.444 234.076 169.381 234.653 169.142C235.229 168.902 235.721 168.497 236.067 167.977C236.413 167.458 236.598 166.848 236.597 166.223C236.597 165.809 236.515 165.399 236.356 165.017C236.198 164.634 235.965 164.287 235.672 163.994C235.379 163.702 235.032 163.47 234.649 163.312C234.266 163.154 233.856 163.073 233.442 163.073Z" fill="#231F20"/>
<path d="M171.343 170.267C170.544 170.267 169.762 170.03 169.097 169.586C168.432 169.141 167.914 168.51 167.608 167.771C167.302 167.032 167.221 166.219 167.378 165.435C167.534 164.65 167.919 163.93 168.484 163.364C169.05 162.799 169.77 162.413 170.554 162.257C171.339 162.101 172.152 162.181 172.891 162.487C173.63 162.794 174.261 163.312 174.705 163.977C175.15 164.642 175.387 165.424 175.387 166.223C175.387 167.296 174.961 168.324 174.203 169.083C173.444 169.841 172.416 170.267 171.343 170.267ZM171.343 163.073C170.719 163.073 170.109 163.259 169.59 163.605C169.071 163.952 168.667 164.445 168.428 165.022C168.19 165.599 168.127 166.233 168.25 166.846C168.372 167.458 168.673 168.02 169.114 168.461C169.556 168.902 170.119 169.202 170.731 169.323C171.343 169.444 171.978 169.381 172.554 169.142C173.13 168.902 173.623 168.497 173.969 167.977C174.315 167.458 174.499 166.848 174.498 166.223C174.498 165.809 174.416 165.399 174.258 165.017C174.099 164.634 173.867 164.287 173.574 163.994C173.281 163.702 172.933 163.47 172.55 163.312C172.168 163.154 171.757 163.073 171.343 163.073Z" fill="#231F20"/>
<path d="M138.962 170.267C138.162 170.268 137.379 170.032 136.714 169.588C136.048 169.144 135.529 168.513 135.222 167.774C134.915 167.035 134.835 166.222 134.99 165.438C135.146 164.653 135.53 163.932 136.096 163.366C136.661 162.8 137.381 162.414 138.166 162.258C138.95 162.101 139.764 162.181 140.503 162.487C141.242 162.793 141.874 163.311 142.318 163.976C142.763 164.641 143 165.423 143 166.223C143 167.295 142.575 168.323 141.818 169.081C141.06 169.839 140.033 170.266 138.962 170.267ZM138.962 163.073C138.337 163.072 137.727 163.257 137.207 163.603C136.687 163.949 136.282 164.442 136.043 165.019C135.804 165.595 135.741 166.23 135.862 166.843C135.984 167.455 136.284 168.018 136.726 168.459C137.167 168.901 137.73 169.201 138.342 169.323C138.955 169.444 139.589 169.381 140.166 169.142C140.743 168.903 141.235 168.498 141.582 167.978C141.928 167.458 142.112 166.848 142.111 166.223C142.11 165.388 141.778 164.588 141.187 163.997C140.597 163.407 139.797 163.075 138.962 163.073Z" fill="#231F20"/>
<path d="M28.9947 170.267C28.1948 170.268 27.4125 170.032 26.7469 169.588C26.0813 169.144 25.5623 168.513 25.2555 167.774C24.9487 167.035 24.8679 166.222 25.0234 165.438C25.1789 164.653 25.5636 163.932 26.1289 163.366C26.6942 162.8 27.4147 162.414 28.1992 162.258C28.9837 162.101 29.7969 162.181 30.5361 162.487C31.2752 162.793 31.907 163.311 32.3516 163.976C32.7961 164.641 33.0334 165.423 33.0334 166.223C33.0334 167.295 32.608 168.323 31.8508 169.081C31.0935 169.839 30.0663 170.266 28.9947 170.267ZM28.9947 163.073C28.3703 163.072 27.7597 163.257 27.2402 163.603C26.7207 163.949 26.3155 164.442 26.0762 165.019C25.8368 165.595 25.7739 166.23 25.8955 166.843C26.017 167.455 26.3176 168.018 26.7591 168.459C27.2006 168.901 27.7632 169.201 28.3756 169.323C28.988 169.444 29.6227 169.381 30.1994 169.142C30.776 168.903 31.2687 168.498 31.6149 167.978C31.9612 167.458 32.1455 166.848 32.1446 166.223C32.1433 165.388 31.811 164.588 31.2206 163.997C30.6301 163.407 29.8297 163.075 28.9947 163.073Z" fill="#231F20"/>
<mask id="path-52-inside-10_942_8950" fill="white">
<path d="M15.0529 75.5117H14.1641V136.944H15.0529V75.5117Z"/>
</mask>
<path d="M14.1641 75.5117V73.5117H12.1641V75.5117H14.1641ZM15.0529 75.5117H17.0529V73.5117H15.0529V75.5117ZM15.0529 136.944V138.944H17.0529V136.944H15.0529ZM14.1641 136.944H12.1641V138.944H14.1641V136.944ZM14.1641 77.5117H15.0529V73.5117H14.1641V77.5117ZM13.0529 75.5117V136.944H17.0529V75.5117H13.0529ZM15.0529 134.944H14.1641V138.944H15.0529V134.944ZM16.1641 136.944V75.5117H12.1641V136.944H16.1641Z" fill="#17CF98" mask="url(#path-52-inside-10_942_8950)"/>
<mask id="path-54-inside-11_942_8950" fill="white">
<path d="M29.3615 75.5117H28.4727V136.944H29.3615V75.5117Z"/>
</mask>
<path d="M28.4727 75.5117V73.5117H26.4727V75.5117H28.4727ZM29.3615 75.5117H31.3615V73.5117H29.3615V75.5117ZM29.3615 136.944V138.944H31.3615V136.944H29.3615ZM28.4727 136.944H26.4727V138.944H28.4727V136.944ZM28.4727 77.5117H29.3615V73.5117H28.4727V77.5117ZM27.3615 75.5117V136.944H31.3615V75.5117H27.3615ZM29.3615 134.944H28.4727V138.944H29.3615V134.944ZM30.4727 136.944V75.5117H26.4727V136.944H30.4727Z" fill="#17CF98" mask="url(#path-54-inside-11_942_8950)"/>
<mask id="path-56-inside-12_942_8950" fill="white">
<path d="M43.6691 75.5117H42.7803V136.944H43.6691V75.5117Z"/>
</mask>
<path d="M42.7803 75.5117V73.5117H40.7803V75.5117H42.7803ZM43.6691 75.5117H45.6691V73.5117H43.6691V75.5117ZM43.6691 136.944V138.944H45.6691V136.944H43.6691ZM42.7803 136.944H40.7803V138.944H42.7803V136.944ZM42.7803 77.5117H43.6691V73.5117H42.7803V77.5117ZM41.6691 75.5117V136.944H45.6691V75.5117H41.6691ZM43.6691 134.944H42.7803V138.944H43.6691V134.944ZM44.7803 136.944V75.5117H40.7803V136.944H44.7803Z" fill="#17CF98" mask="url(#path-56-inside-12_942_8950)"/>
<mask id="path-58-inside-13_942_8950" fill="white">
<path d="M158.144 75.5117H157.255V136.944H158.144V75.5117Z"/>
</mask>
<path d="M157.255 75.5117V73.5117H155.255V75.5117H157.255ZM158.144 75.5117H160.144V73.5117H158.144V75.5117ZM158.144 136.944V138.944H160.144V136.944H158.144ZM157.255 136.944H155.255V138.944H157.255V136.944ZM157.255 77.5117H158.144V73.5117H157.255V77.5117ZM156.144 75.5117V136.944H160.144V75.5117H156.144ZM158.144 134.944H157.255V138.944H158.144V134.944ZM159.255 136.944V75.5117H155.255V136.944H159.255Z" fill="#17CF98" mask="url(#path-58-inside-13_942_8950)"/>
<mask id="path-60-inside-14_942_8950" fill="white">
<path d="M143.835 75.5117H142.946V136.944H143.835V75.5117Z"/>
</mask>
<path d="M142.946 75.5117V73.5117H140.946V75.5117H142.946ZM143.835 75.5117H145.835V73.5117H143.835V75.5117ZM143.835 136.944V138.944H145.835V136.944H143.835ZM142.946 136.944H140.946V138.944H142.946V136.944ZM142.946 77.5117H143.835V73.5117H142.946V77.5117ZM141.835 75.5117V136.944H145.835V75.5117H141.835ZM143.835 134.944H142.946V138.944H143.835V134.944ZM144.946 136.944V75.5117H140.946V136.944H144.946Z" fill="#17CF98" mask="url(#path-60-inside-14_942_8950)"/>
<mask id="path-62-inside-15_942_8950" fill="white">
<path d="M115.219 75.5117H114.33V136.944H115.219V75.5117Z"/>
</mask>
<path d="M114.33 75.5117V73.5117H112.33V75.5117H114.33ZM115.219 75.5117H117.219V73.5117H115.219V75.5117ZM115.219 136.944V138.944H117.219V136.944H115.219ZM114.33 136.944H112.33V138.944H114.33V136.944ZM114.33 77.5117H115.219V73.5117H114.33V77.5117ZM113.219 75.5117V136.944H117.219V75.5117H113.219ZM115.219 134.944H114.33V138.944H115.219V134.944ZM116.33 136.944V75.5117H112.33V136.944H116.33Z" fill="#17CF98" mask="url(#path-62-inside-15_942_8950)"/>
<mask id="path-64-inside-16_942_8950" fill="white">
<path d="M100.909 75.5117H100.021V136.944H100.909V75.5117Z"/>
</mask>
<path d="M100.021 75.5117V73.5117H98.0205V75.5117H100.021ZM100.909 75.5117H102.909V73.5117H100.909V75.5117ZM100.909 136.944V138.944H102.909V136.944H100.909ZM100.021 136.944H98.0205V138.944H100.021V136.944ZM100.021 77.5117H100.909V73.5117H100.021V77.5117ZM98.9093 75.5117V136.944H102.909V75.5117H98.9093ZM100.909 134.944H100.021V138.944H100.909V134.944ZM102.021 136.944V75.5117H98.0205V136.944H102.021Z" fill="#17CF98" mask="url(#path-64-inside-16_942_8950)"/>
<mask id="path-66-inside-17_942_8950" fill="white">
<path d="M86.5958 75.5117H85.707V136.944H86.5958V75.5117Z"/>
</mask>
<path d="M85.707 75.5117V73.5117H83.707V75.5117H85.707ZM86.5958 75.5117H88.5958V73.5117H86.5958V75.5117ZM86.5958 136.944V138.944H88.5958V136.944H86.5958ZM85.707 136.944H83.707V138.944H85.707V136.944ZM85.707 77.5117H86.5958V73.5117H85.707V77.5117ZM84.5958 75.5117V136.944H88.5958V75.5117H84.5958ZM86.5958 134.944H85.707V138.944H86.5958V134.944ZM87.707 136.944V75.5117H83.707V136.944H87.707Z" fill="#17CF98" mask="url(#path-66-inside-17_942_8950)"/>
<mask id="path-68-inside-18_942_8950" fill="white">
<path d="M72.2872 75.5117H71.3984V136.944H72.2872V75.5117Z"/>
</mask>
<path d="M71.3984 75.5117V73.5117H69.3984V75.5117H71.3984ZM72.2872 75.5117H74.2872V73.5117H72.2872V75.5117ZM72.2872 136.944V138.944H74.2872V136.944H72.2872ZM71.3984 136.944H69.3984V138.944H71.3984V136.944ZM71.3984 77.5117H72.2872V73.5117H71.3984V77.5117ZM70.2872 75.5117V136.944H74.2872V75.5117H70.2872ZM72.2872 134.944H71.3984V138.944H72.2872V134.944ZM73.3984 136.944V75.5117H69.3984V136.944H73.3984Z" fill="#17CF98" mask="url(#path-68-inside-18_942_8950)"/>
<mask id="path-70-inside-19_942_8950" fill="white">
<path d="M57.9786 75.5117H57.0898V136.944H57.9786V75.5117Z"/>
</mask>
<path d="M57.0898 75.5117V73.5117H55.0898V75.5117H57.0898ZM57.9786 75.5117H59.9786V73.5117H57.9786V75.5117ZM57.9786 136.944V138.944H59.9786V136.944H57.9786ZM57.0898 136.944H55.0898V138.944H57.0898V136.944ZM57.0898 77.5117H57.9786V73.5117H57.0898V77.5117ZM55.9786 75.5117V136.944H59.9786V75.5117H55.9786ZM57.9786 134.944H57.0898V138.944H57.9786V134.944ZM59.0898 136.944V75.5117H55.0898V136.944H59.0898Z" fill="#17CF98" mask="url(#path-70-inside-19_942_8950)"/>
<mask id="path-72-inside-20_942_8950" fill="white">
<path d="M129.526 75.5117H128.638V136.944H129.526V75.5117Z"/>
</mask>
<path d="M128.638 75.5117V73.5117H126.638V75.5117H128.638ZM129.526 75.5117H131.526V73.5117H129.526V75.5117ZM129.526 136.944V138.944H131.526V136.944H129.526ZM128.638 136.944H126.638V138.944H128.638V136.944ZM128.638 77.5117H129.526V73.5117H128.638V77.5117ZM127.526 75.5117V136.944H131.526V75.5117H127.526ZM129.526 134.944H128.638V138.944H129.526V134.944ZM130.638 136.944V75.5117H126.638V136.944H130.638Z" fill="#17CF98" mask="url(#path-72-inside-20_942_8950)"/>
<mask id="path-74-inside-21_942_8950" fill="white">
<path d="M202.623 137.724H195.127C194.774 137.724 194.434 137.583 194.184 137.333C193.934 137.083 193.794 136.744 193.794 136.391V132.786C193.794 132.611 193.828 132.438 193.895 132.276C193.962 132.114 194.061 131.967 194.184 131.844C194.308 131.72 194.455 131.622 194.617 131.555C194.779 131.488 194.952 131.453 195.127 131.453H202.623C202.798 131.453 202.972 131.488 203.134 131.555C203.295 131.622 203.442 131.72 203.566 131.844C203.69 131.967 203.788 132.114 203.855 132.276C203.922 132.438 203.957 132.611 203.957 132.786V136.391C203.957 136.744 203.816 137.083 203.566 137.333C203.316 137.583 202.977 137.724 202.623 137.724ZM195.127 132.352C195.009 132.352 194.896 132.399 194.813 132.482C194.73 132.565 194.683 132.678 194.683 132.796V136.4C194.683 136.459 194.694 136.516 194.717 136.57C194.739 136.624 194.772 136.673 194.813 136.715C194.854 136.756 194.903 136.789 194.957 136.811C195.011 136.833 195.069 136.845 195.127 136.845H202.623C202.682 136.845 202.739 136.833 202.793 136.811C202.847 136.789 202.896 136.756 202.938 136.715C202.979 136.673 203.012 136.624 203.034 136.57C203.056 136.516 203.068 136.459 203.068 136.4V132.796C203.068 132.678 203.021 132.565 202.938 132.482C202.854 132.399 202.741 132.352 202.623 132.352H195.127Z"/>
</mask>
<path d="M195.127 137.724V135.724V137.724ZM193.794 132.786H191.794H193.794ZM195.127 131.453V133.453V131.453ZM203.957 132.786H201.957H203.957ZM203.957 136.391H205.957H203.957ZM195.127 132.352V134.352V132.352ZM202.623 135.724H195.127V139.724H202.623V135.724ZM195.127 135.724C195.304 135.724 195.474 135.794 195.599 135.919L192.77 138.748C193.395 139.373 194.243 139.724 195.127 139.724V135.724ZM195.599 135.919C195.724 136.044 195.794 136.214 195.794 136.391H191.794C191.794 137.275 192.145 138.122 192.77 138.748L195.599 135.919ZM195.794 136.391V132.786H191.794V136.391H195.794ZM195.794 132.786C195.794 132.874 195.777 132.961 195.743 133.042L192.048 131.511C191.88 131.915 191.794 132.349 191.794 132.786H195.794ZM195.743 133.042C195.71 133.122 195.661 133.196 195.599 133.258L192.77 130.429C192.461 130.739 192.215 131.107 192.048 131.511L195.743 133.042ZM195.599 133.258C195.537 133.32 195.463 133.369 195.382 133.402L193.852 129.707C193.447 129.874 193.08 130.12 192.77 130.429L195.599 133.258ZM195.382 133.402C195.301 133.436 195.215 133.453 195.127 133.453V129.453C194.689 129.453 194.256 129.539 193.852 129.707L195.382 133.402ZM195.127 133.453H202.623V129.453H195.127V133.453ZM202.623 133.453C202.536 133.453 202.449 133.436 202.368 133.402L203.899 129.707C203.494 129.539 203.061 129.453 202.623 129.453V133.453ZM202.368 133.402C202.287 133.369 202.214 133.32 202.152 133.258L204.98 130.429C204.671 130.12 204.303 129.874 203.899 129.707L202.368 133.402ZM202.152 133.258C202.09 133.196 202.041 133.122 202.007 133.042L205.703 131.511C205.535 131.106 205.29 130.739 204.98 130.429L202.152 133.258ZM202.007 133.042C201.974 132.961 201.957 132.874 201.957 132.786H205.957C205.957 132.349 205.87 131.915 205.703 131.511L202.007 133.042ZM201.957 132.786V136.391H205.957V132.786H201.957ZM201.957 136.391C201.957 136.214 202.027 136.044 202.152 135.919L204.98 138.748C205.605 138.122 205.957 137.275 205.957 136.391H201.957ZM202.152 135.919C202.277 135.794 202.446 135.724 202.623 135.724V139.724C203.507 139.724 204.355 139.373 204.98 138.748L202.152 135.919ZM195.127 130.352C194.479 130.352 193.857 130.609 193.399 131.068L196.227 133.896C195.935 134.188 195.54 134.352 195.127 134.352V130.352ZM193.399 131.068C192.94 131.526 192.683 132.148 192.683 132.796H196.683C196.683 133.209 196.519 133.604 196.227 133.896L193.399 131.068ZM192.683 132.796V136.4H196.683V132.796H192.683ZM192.683 136.4C192.683 136.721 192.746 137.039 192.869 137.336L196.564 135.805C196.642 135.994 196.683 136.196 196.683 136.4H192.683ZM192.869 137.336C192.992 137.632 193.172 137.902 193.399 138.129L196.227 135.3C196.372 135.445 196.486 135.616 196.564 135.805L192.869 137.336ZM193.399 138.129C193.626 138.356 193.895 138.536 194.192 138.659L195.722 134.963C195.911 135.041 196.083 135.156 196.227 135.3L193.399 138.129ZM194.192 138.659C194.488 138.781 194.806 138.845 195.127 138.845V134.845C195.332 134.845 195.534 134.885 195.722 134.963L194.192 138.659ZM195.127 138.845H202.623V134.845H195.127V138.845ZM202.623 138.845C202.944 138.845 203.262 138.781 203.559 138.659L202.028 134.963C202.217 134.885 202.419 134.845 202.623 134.845V138.845ZM203.559 138.659C203.855 138.536 204.125 138.356 204.352 138.129L201.523 135.3C201.668 135.156 201.839 135.041 202.028 134.963L203.559 138.659ZM204.352 138.129C204.579 137.902 204.759 137.632 204.882 137.336L201.186 135.805C201.264 135.616 201.379 135.445 201.523 135.3L204.352 138.129ZM204.882 137.336C205.005 137.039 205.068 136.721 205.068 136.4H201.068C201.068 136.196 201.108 135.994 201.186 135.805L204.882 137.336ZM205.068 136.4V132.796H201.068V136.4H205.068ZM205.068 132.796C205.068 132.148 204.81 131.526 204.352 131.068L201.523 133.896C201.232 133.604 201.068 133.209 201.068 132.796H205.068ZM204.352 131.068C203.893 130.609 203.272 130.352 202.623 130.352V134.352C202.211 134.352 201.815 134.188 201.523 133.896L204.352 131.068ZM202.623 130.352H195.127V134.352H202.623V130.352Z" fill="#60A498" mask="url(#path-74-inside-21_942_8950)"/>
<path d="M193.355 155.84H192.466V166.706H193.355V155.84Z" fill="#6B7280"/>
<path d="M202.627 155.84H201.738V166.706H202.627V155.84Z" fill="#6B7280"/>
<path d="M211.809 155.84H210.92V166.706H211.809V155.84Z" fill="#6B7280"/>
</svg>
